<?xml version="1.0" encoding="UTF-8" standalone="no"?>
<svg
   xmlns:dc="http://purl.org/dc/elements/1.1/"
   xmlns:cc="http://creativecommons.org/ns#"
   xmlns:rdf="http://www.w3.org/1999/02/22-rdf-syntax-ns#"
   xmlns:svg="http://www.w3.org/2000/svg"
   xmlns="http://www.w3.org/2000/svg"
   viewBox="0 0 365.33334 864"
   height="864"
   width="365.33334"
   xml:space="preserve"
   id="svg2"
   version="1.1"><metadata
     id="metadata8"><rdf:RDF><cc:Work
         rdf:about=""><dc:format>image/svg+xml</dc:format><dc:type
           rdf:resource="http://purl.org/dc/dcmitype/StillImage" /></cc:Work></rdf:RDF></metadata><defs
     id="defs6" /><g
     transform="matrix(1.3333333,0,0,1.3333333,0,2.16e-5)"
     id="g10"><g
       id="g12"><path
         id="path14"
         style="fill:#ffffe0;fill-opacity:1;fill-rule:nonzero;stroke:none"
         d="M 77,40 H 197 V 72 H 77 Z" /><path
         id="path16"
         style="fill:none;stroke:#000000;stroke-width:1;stroke-linecap:butt;stroke-linejoin:miter;stroke-miterlimit:10;stroke-dasharray:none;stroke-opacity:1"
         d="m 77,40 h 68 V 72 H 77 Z" /><text
         id="text22"
         style="font-variant:normal;font-weight:normal;font-size:9.99975586px;font-family:'Noto Sans';-inkscape-font-specification:NotoSans-Regular;writing-mode:lr-tb;fill:#000000;fill-opacity:1;fill-rule:nonzero;stroke:none"
         transform="translate(82,53)"><tspan
           id="tspan18"
           y="0"
           x="0 2.2499452 8.2497988 14.249652 20.249506 23.999414 26.999342 30.74925 36.749104 42.748959 47.248848 53.248699">input-tensor</tspan><tspan
           id="tspan20"
           y="11.000002"
           x="10.500004 16.499857 22.49971 28.499565 32.249474 38.249325 41.249252">depth:0</tspan></text>
<path
         id="path24"
         style="fill:none;stroke:#000000;stroke-width:1;stroke-linecap:butt;stroke-linejoin:miter;stroke-miterlimit:10;stroke-dasharray:none;stroke-opacity:1"
         d="m 145,40 h 52 v 32 h -52 z" /><text
         id="text28"
         style="font-variant:normal;font-weight:normal;font-size:9.99975586px;font-family:'Noto Sans';-inkscape-font-specification:NotoSans-Regular;writing-mode:lr-tb;fill:#000000;fill-opacity:1;fill-rule:nonzero;stroke:none"
         transform="translate(150,58.5)"><tspan
           id="tspan26"
           y="0"
           x="0 2.9999268 8.9997807 14.999634 20.999487 23.999414 26.249359 32.249214 38.249065">(128, 19)</tspan></text>
<path
         id="path30"
         style="fill:#f0f8ff;fill-opacity:1;fill-rule:nonzero;stroke:none"
         d="m 57,108 h 160 v 42 H 57 Z" /><path
         id="path32"
         style="fill:none;stroke:#000000;stroke-width:1;stroke-linecap:butt;stroke-linejoin:miter;stroke-miterlimit:10;stroke-dasharray:none;stroke-opacity:1"
         d="m 57,108 h 48 v 42 H 57 Z" /><text
         id="text38"
         style="font-variant:normal;font-weight:normal;font-size:9.99975586px;font-family:'Noto Sans';-inkscape-font-specification:NotoSans-Regular;writing-mode:lr-tb;fill:#000000;fill-opacity:1;fill-rule:nonzero;stroke:none"
         transform="translate(62,126)"><tspan
           id="tspan34"
           y="0"
           x="0 3.7499084 9.7497625 14.249652 20.249506 25.499378 31.499231">reshape</tspan><tspan
           id="tspan36"
           y="11.000002"
           x="0.49999979 6.4998536 12.499707 18.499561 22.24947 28.249323 31.24925">depth:1</tspan></text>
<path
         id="path40"
         style="fill:none;stroke:#000000;stroke-width:1;stroke-linecap:butt;stroke-linejoin:miter;stroke-miterlimit:10;stroke-dasharray:none;stroke-opacity:1"
         d="m 105,108 h 47 v 21 h -47 z" /><text
         id="text44"
         style="font-variant:normal;font-weight:normal;font-size:9.99975586px;font-family:'Noto Sans';-inkscape-font-specification:NotoSans-Regular;writing-mode:lr-tb;fill:#000000;fill-opacity:1;fill-rule:nonzero;stroke:none"
         transform="translate(114.5,121)"><tspan
           id="tspan42"
           y="0"
           x="0 2.2499452 8.2497988 14.249652 20.249506 23.999414">input:</tspan></text>
<path
         id="path46"
         style="fill:none;stroke:#000000;stroke-width:1;stroke-linecap:butt;stroke-linejoin:miter;stroke-miterlimit:10;stroke-dasharray:none;stroke-opacity:1"
         d="m 152,108 h 65 v 21 h -65 z" /><text
         id="text50"
         style="font-variant:normal;font-weight:normal;font-size:9.99975586px;font-family:'Noto Sans';-inkscape-font-specification:NotoSans-Regular;writing-mode:lr-tb;fill:#000000;fill-opacity:1;fill-rule:nonzero;stroke:none"
         transform="translate(162.5,121)"><tspan
           id="tspan48"
           y="0"
           x="0 2.9999268 8.9997807 14.999634 20.999487 23.999414 26.249359 32.249214 38.249065 41.248993">(128, 19) </tspan></text>
<path
         id="path52"
         style="fill:none;stroke:#000000;stroke-width:1;stroke-linecap:butt;stroke-linejoin:miter;stroke-miterlimit:10;stroke-dasharray:none;stroke-opacity:1"
         d="m 105,129 h 47 v 21 h -47 z" /><text
         id="text56"
         style="font-variant:normal;font-weight:normal;font-size:9.99975586px;font-family:'Noto Sans';-inkscape-font-specification:NotoSans-Regular;writing-mode:lr-tb;fill:#000000;fill-opacity:1;fill-rule:nonzero;stroke:none"
         transform="translate(110,142)"><tspan
           id="tspan54"
           y="0"
           x="0 5.9998536 11.999707 15.749616 21.74947 27.749323 31.499231 34.499157">output: </tspan></text>
<path
         id="path58"
         style="fill:none;stroke:#000000;stroke-width:1;stroke-linecap:butt;stroke-linejoin:miter;stroke-miterlimit:10;stroke-dasharray:none;stroke-opacity:1"
         d="m 152,129 h 65 v 21 h -65 z" /><text
         id="text62"
         style="font-variant:normal;font-weight:normal;font-size:9.99975586px;font-family:'Noto Sans';-inkscape-font-specification:NotoSans-Regular;writing-mode:lr-tb;fill:#000000;fill-opacity:1;fill-rule:nonzero;stroke:none"
         transform="translate(157,142)"><tspan
           id="tspan60"
           y="0"
           x="0 2.9999268 8.9997807 14.999634 20.999487 23.999414 26.249359 32.249214 35.249142 37.499084 43.49894 49.498791 52.498718">(128, 1, 19) </tspan></text>
<path
         id="path64"
         style="fill:none;stroke:#000000;stroke-width:1;stroke-linecap:butt;stroke-linejoin:miter;stroke-miterlimit:10;stroke-dasharray:none;stroke-opacity:1"
         d="m 137,72.059 c 0,7.488 0,16.82 0,25.703" /><path
         id="path66"
         style="fill:#000000;fill-opacity:1;fill-rule:nonzero;stroke:#000000;stroke-width:1;stroke-linecap:butt;stroke-linejoin:miter;stroke-miterlimit:10;stroke-dasharray:none;stroke-opacity:1"
         d="m 140.5,97.844 -3.5,10 -3.5,-10 z" /><path
         id="path68"
         style="fill:#c1ffc1;fill-opacity:1;fill-rule:nonzero;stroke:none"
         d="m 54.5,186 h 165 v 42 h -165 z" /><path
         id="path70"
         style="fill:none;stroke:#000000;stroke-width:1;stroke-linecap:butt;stroke-linejoin:miter;stroke-miterlimit:10;stroke-dasharray:none;stroke-opacity:1"
         d="m 55,186 h 47 v 42 H 55 Z" /><text
         id="text76"
         style="font-variant:normal;font-weight:normal;font-size:9.99975586px;font-family:'Noto Sans';-inkscape-font-specification:NotoSans-Regular;writing-mode:lr-tb;fill:#000000;fill-opacity:1;fill-rule:nonzero;stroke:none"
         transform="translate(60.5,204)"><tspan
           id="tspan72"
           y="0"
           x="0 5.9998536 11.999707 17.999561 23.249434 29.249287">Conv1d</tspan><tspan
           id="tspan74"
           y="11.000002"
           x="-0.49999979 5.4998536 11.499707 17.499561 21.24947 27.249323 30.24925">depth:1</tspan></text>
<path
         id="path78"
         style="fill:none;stroke:#000000;stroke-width:1;stroke-linecap:butt;stroke-linejoin:miter;stroke-miterlimit:10;stroke-dasharray:none;stroke-opacity:1"
         d="m 102,186 h 47 v 21 h -47 z" /><text
         id="text82"
         style="font-variant:normal;font-weight:normal;font-size:9.99975586px;font-family:'Noto Sans';-inkscape-font-specification:NotoSans-Regular;writing-mode:lr-tb;fill:#000000;fill-opacity:1;fill-rule:nonzero;stroke:none"
         transform="translate(111.5,199)"><tspan
           id="tspan80"
           y="0"
           x="0 2.2499452 8.2497988 14.249652 20.249506 23.999414">input:</tspan></text>
<path
         id="path84"
         style="fill:none;stroke:#000000;stroke-width:1;stroke-linecap:butt;stroke-linejoin:miter;stroke-miterlimit:10;stroke-dasharray:none;stroke-opacity:1"
         d="m 149,186 h 71 v 21 h -71 z" /><text
         id="text88"
         style="font-variant:normal;font-weight:normal;font-size:9.99975586px;font-family:'Noto Sans';-inkscape-font-specification:NotoSans-Regular;writing-mode:lr-tb;fill:#000000;fill-opacity:1;fill-rule:nonzero;stroke:none"
         transform="translate(157,199)"><tspan
           id="tspan86"
           y="0"
           x="0 2.9999268 8.9997807 14.999634 20.999487 23.999414 26.249359 32.249214 35.249142 37.499084 43.49894 49.498791 52.498718">(128, 1, 19) </tspan></text>
<path
         id="path90"
         style="fill:none;stroke:#000000;stroke-width:1;stroke-linecap:butt;stroke-linejoin:miter;stroke-miterlimit:10;stroke-dasharray:none;stroke-opacity:1"
         d="m 102,207 h 47 v 21 h -47 z" /><text
         id="text94"
         style="font-variant:normal;font-weight:normal;font-size:9.99975586px;font-family:'Noto Sans';-inkscape-font-specification:NotoSans-Regular;writing-mode:lr-tb;fill:#000000;fill-opacity:1;fill-rule:nonzero;stroke:none"
         transform="translate(107,220)"><tspan
           id="tspan92"
           y="0"
           x="0 5.9998536 11.999707 15.749616 21.74947 27.749323 31.499231 34.499157">output: </tspan></text>
<path
         id="path96"
         style="fill:none;stroke:#000000;stroke-width:1;stroke-linecap:butt;stroke-linejoin:miter;stroke-miterlimit:10;stroke-dasharray:none;stroke-opacity:1"
         d="m 149,207 h 71 v 21 h -71 z" /><text
         id="text100"
         style="font-variant:normal;font-weight:normal;font-size:9.99975586px;font-family:'Noto Sans';-inkscape-font-specification:NotoSans-Regular;writing-mode:lr-tb;fill:#000000;fill-opacity:1;fill-rule:nonzero;stroke:none"
         transform="translate(154,220)"><tspan
           id="tspan98"
           y="0"
           x="0 2.9999268 8.9997807 14.999634 20.999487 23.999414 26.249359 32.249214 38.249065 41.248993 43.49894 49.498791 55.498646 58.498573">(128, 32, 17) </tspan></text>
<path
         id="path102"
         style="fill:none;stroke:#000000;stroke-width:1;stroke-linecap:butt;stroke-linejoin:miter;stroke-miterlimit:10;stroke-dasharray:none;stroke-opacity:1"
         d="m 137,150.367 c 0,7.813 0,16.906 0,25.449" /><path
         id="path104"
         style="fill:#000000;fill-opacity:1;fill-rule:nonzero;stroke:#000000;stroke-width:1;stroke-linecap:butt;stroke-linejoin:miter;stroke-miterlimit:10;stroke-dasharray:none;stroke-opacity:1"
         d="m 140.5,175.84 -3.5,10 -3.5,-10 z" /><path
         id="path106"
         style="fill:#c1ffc1;fill-opacity:1;fill-rule:nonzero;stroke:none"
         d="m 40,264 h 194 v 42 H 40 Z" /><path
         id="path108"
         style="fill:none;stroke:#000000;stroke-width:1;stroke-linecap:butt;stroke-linejoin:miter;stroke-miterlimit:10;stroke-dasharray:none;stroke-opacity:1"
         d="m 40,264 h 76 v 42 H 40 Z" /><text
         id="text114"
         style="font-variant:normal;font-weight:normal;font-size:9.99975586px;font-family:'Noto Sans';-inkscape-font-specification:NotoSans-Regular;writing-mode:lr-tb;fill:#000000;fill-opacity:1;fill-rule:nonzero;stroke:none"
         transform="translate(45,282)"><tspan
           id="tspan110"
           y="0"
           x="0 6.7498355 11.999707 15.749616 20.249506 26.249359 33.749176 39.749031 44.24892 53.248699 59.248554">BatchNorm1d</tspan><tspan
           id="tspan112"
           y="11.000002"
           x="14.499996 20.499849 26.499702 32.499557 36.249466 42.249321 45.249245">depth:1</tspan></text>
<path
         id="path116"
         style="fill:none;stroke:#000000;stroke-width:1;stroke-linecap:butt;stroke-linejoin:miter;stroke-miterlimit:10;stroke-dasharray:none;stroke-opacity:1"
         d="m 116,264 h 47 v 21 h -47 z" /><text
         id="text120"
         style="font-variant:normal;font-weight:normal;font-size:9.99975586px;font-family:'Noto Sans';-inkscape-font-specification:NotoSans-Regular;writing-mode:lr-tb;fill:#000000;fill-opacity:1;fill-rule:nonzero;stroke:none"
         transform="translate(125.5,277)"><tspan
           id="tspan118"
           y="0"
           x="0 2.2499452 8.2497988 14.249652 20.249506 23.999414">input:</tspan></text>
<path
         id="path122"
         style="fill:none;stroke:#000000;stroke-width:1;stroke-linecap:butt;stroke-linejoin:miter;stroke-miterlimit:10;stroke-dasharray:none;stroke-opacity:1"
         d="m 163,264 h 71 v 21 h -71 z" /><text
         id="text126"
         style="font-variant:normal;font-weight:normal;font-size:9.99975586px;font-family:'Noto Sans';-inkscape-font-specification:NotoSans-Regular;writing-mode:lr-tb;fill:#000000;fill-opacity:1;fill-rule:nonzero;stroke:none"
         transform="translate(168,277)"><tspan
           id="tspan124"
           y="0"
           x="0 2.9999268 8.9997807 14.999634 20.999487 23.999414 26.249359 32.249214 38.249065 41.248993 43.49894 49.498791 55.498646 58.498573">(128, 32, 17) </tspan></text>
<path
         id="path128"
         style="fill:none;stroke:#000000;stroke-width:1;stroke-linecap:butt;stroke-linejoin:miter;stroke-miterlimit:10;stroke-dasharray:none;stroke-opacity:1"
         d="m 116,285 h 47 v 21 h -47 z" /><text
         id="text132"
         style="font-variant:normal;font-weight:normal;font-size:9.99975586px;font-family:'Noto Sans';-inkscape-font-specification:NotoSans-Regular;writing-mode:lr-tb;fill:#000000;fill-opacity:1;fill-rule:nonzero;stroke:none"
         transform="translate(121,298)"><tspan
           id="tspan130"
           y="0"
           x="0 5.9998536 11.999707 15.749616 21.74947 27.749323 31.499231 34.499157">output: </tspan></text>
<path
         id="path134"
         style="fill:none;stroke:#000000;stroke-width:1;stroke-linecap:butt;stroke-linejoin:miter;stroke-miterlimit:10;stroke-dasharray:none;stroke-opacity:1"
         d="m 163,285 h 71 v 21 h -71 z" /><text
         id="text138"
         style="font-variant:normal;font-weight:normal;font-size:9.99975586px;font-family:'Noto Sans';-inkscape-font-specification:NotoSans-Regular;writing-mode:lr-tb;fill:#000000;fill-opacity:1;fill-rule:nonzero;stroke:none"
         transform="translate(168,298)"><tspan
           id="tspan136"
           y="0"
           x="0 2.9999268 8.9997807 14.999634 20.999487 23.999414 26.249359 32.249214 38.249065 41.248993 43.49894 49.498791 55.498646 58.498573">(128, 32, 17) </tspan></text>
<path
         id="path140"
         style="fill:none;stroke:#000000;stroke-width:1;stroke-linecap:butt;stroke-linejoin:miter;stroke-miterlimit:10;stroke-dasharray:none;stroke-opacity:1"
         d="m 137,228.367 c 0,7.813 0,16.906 0,25.449" /><path
         id="path142"
         style="fill:#000000;fill-opacity:1;fill-rule:nonzero;stroke:#000000;stroke-width:1;stroke-linecap:butt;stroke-linejoin:miter;stroke-miterlimit:10;stroke-dasharray:none;stroke-opacity:1"
         d="m 140.5,253.84 -3.5,10 -3.5,-10 z" /><path
         id="path144"
         style="fill:#f0f8ff;fill-opacity:1;fill-rule:nonzero;stroke:none"
         d="m 54.5,342 h 165 v 42 h -165 z" /><path
         id="path146"
         style="fill:none;stroke:#000000;stroke-width:1;stroke-linecap:butt;stroke-linejoin:miter;stroke-miterlimit:10;stroke-dasharray:none;stroke-opacity:1"
         d="m 55,342 h 47 v 42 H 55 Z" /><text
         id="text152"
         style="font-variant:normal;font-weight:normal;font-size:9.99975586px;font-family:'Noto Sans';-inkscape-font-specification:NotoSans-Regular;writing-mode:lr-tb;fill:#000000;fill-opacity:1;fill-rule:nonzero;stroke:none"
         transform="translate(68,360)"><tspan
           id="tspan148"
           y="0"
           x="0 5.9998536 11.999707 14.249652">gelu</tspan><tspan
           id="tspan150"
           y="11.000002"
           x="-8.0000048 -2.0001512 3.9997025 9.9995556 13.749464 19.749317 22.749245">depth:1</tspan></text>
<path
         id="path154"
         style="fill:none;stroke:#000000;stroke-width:1;stroke-linecap:butt;stroke-linejoin:miter;stroke-miterlimit:10;stroke-dasharray:none;stroke-opacity:1"
         d="m 102,342 h 47 v 21 h -47 z" /><text
         id="text158"
         style="font-variant:normal;font-weight:normal;font-size:9.99975586px;font-family:'Noto Sans';-inkscape-font-specification:NotoSans-Regular;writing-mode:lr-tb;fill:#000000;fill-opacity:1;fill-rule:nonzero;stroke:none"
         transform="translate(111.5,355)"><tspan
           id="tspan156"
           y="0"
           x="0 2.2499452 8.2497988 14.249652 20.249506 23.999414">input:</tspan></text>
<path
         id="path160"
         style="fill:none;stroke:#000000;stroke-width:1;stroke-linecap:butt;stroke-linejoin:miter;stroke-miterlimit:10;stroke-dasharray:none;stroke-opacity:1"
         d="m 149,342 h 71 v 21 h -71 z" /><text
         id="text164"
         style="font-variant:normal;font-weight:normal;font-size:9.99975586px;font-family:'Noto Sans';-inkscape-font-specification:NotoSans-Regular;writing-mode:lr-tb;fill:#000000;fill-opacity:1;fill-rule:nonzero;stroke:none"
         transform="translate(154,355)"><tspan
           id="tspan162"
           y="0"
           x="0 2.9999268 8.9997807 14.999634 20.999487 23.999414 26.249359 32.249214 38.249065 41.248993 43.49894 49.498791 55.498646 58.498573">(128, 32, 17) </tspan></text>
<path
         id="path166"
         style="fill:none;stroke:#000000;stroke-width:1;stroke-linecap:butt;stroke-linejoin:miter;stroke-miterlimit:10;stroke-dasharray:none;stroke-opacity:1"
         d="m 102,363 h 47 v 21 h -47 z" /><text
         id="text170"
         style="font-variant:normal;font-weight:normal;font-size:9.99975586px;font-family:'Noto Sans';-inkscape-font-specification:NotoSans-Regular;writing-mode:lr-tb;fill:#000000;fill-opacity:1;fill-rule:nonzero;stroke:none"
         transform="translate(107,376)"><tspan
           id="tspan168"
           y="0"
           x="0 5.9998536 11.999707 15.749616 21.74947 27.749323 31.499231 34.499157">output: </tspan></text>
<path
         id="path172"
         style="fill:none;stroke:#000000;stroke-width:1;stroke-linecap:butt;stroke-linejoin:miter;stroke-miterlimit:10;stroke-dasharray:none;stroke-opacity:1"
         d="m 149,363 h 71 v 21 h -71 z" /><text
         id="text176"
         style="font-variant:normal;font-weight:normal;font-size:9.99975586px;font-family:'Noto Sans';-inkscape-font-specification:NotoSans-Regular;writing-mode:lr-tb;fill:#000000;fill-opacity:1;fill-rule:nonzero;stroke:none"
         transform="translate(154,376)"><tspan
           id="tspan174"
           y="0"
           x="0 2.9999268 8.9997807 14.999634 20.999487 23.999414 26.249359 32.249214 38.249065 41.248993 43.49894 49.498791 55.498646 58.498573">(128, 32, 17) </tspan></text>
<path
         id="path178"
         style="fill:none;stroke:#000000;stroke-width:1;stroke-linecap:butt;stroke-linejoin:miter;stroke-miterlimit:10;stroke-dasharray:none;stroke-opacity:1"
         d="m 137,306.367 c 0,7.813 0,16.906 0,25.449" /><path
         id="path180"
         style="fill:#000000;fill-opacity:1;fill-rule:nonzero;stroke:#000000;stroke-width:1;stroke-linecap:butt;stroke-linejoin:miter;stroke-miterlimit:10;stroke-dasharray:none;stroke-opacity:1"
         d="m 140.5,331.84 -3.5,10 -3.5,-10 z" /><path
         id="path182"
         style="fill:#c1ffc1;fill-opacity:1;fill-rule:nonzero;stroke:none"
         d="m 54.5,420 h 165 v 42 h -165 z" /><path
         id="path184"
         style="fill:none;stroke:#000000;stroke-width:1;stroke-linecap:butt;stroke-linejoin:miter;stroke-miterlimit:10;stroke-dasharray:none;stroke-opacity:1"
         d="m 55,420 h 47 v 42 H 55 Z" /><text
         id="text190"
         style="font-variant:normal;font-weight:normal;font-size:9.99975586px;font-family:'Noto Sans';-inkscape-font-specification:NotoSans-Regular;writing-mode:lr-tb;fill:#000000;fill-opacity:1;fill-rule:nonzero;stroke:none"
         transform="translate(62,438)"><tspan
           id="tspan186"
           y="0"
           x="0 5.2498717 7.4998169 12.749689 16.499598 20.249506 26.249359">Flatten</tspan><tspan
           id="tspan188"
           y="11.000002"
           x="-2.0000012 3.9998524 9.9997063 15.999559 19.749468 25.749321 28.749249">depth:1</tspan></text>
<path
         id="path192"
         style="fill:none;stroke:#000000;stroke-width:1;stroke-linecap:butt;stroke-linejoin:miter;stroke-miterlimit:10;stroke-dasharray:none;stroke-opacity:1"
         d="m 102,420 h 47 v 21 h -47 z" /><text
         id="text196"
         style="font-variant:normal;font-weight:normal;font-size:9.99975586px;font-family:'Noto Sans';-inkscape-font-specification:NotoSans-Regular;writing-mode:lr-tb;fill:#000000;fill-opacity:1;fill-rule:nonzero;stroke:none"
         transform="translate(111.5,433)"><tspan
           id="tspan194"
           y="0"
           x="0 2.2499452 8.2497988 14.249652 20.249506 23.999414">input:</tspan></text>
<path
         id="path198"
         style="fill:none;stroke:#000000;stroke-width:1;stroke-linecap:butt;stroke-linejoin:miter;stroke-miterlimit:10;stroke-dasharray:none;stroke-opacity:1"
         d="m 149,420 h 71 v 21 h -71 z" /><text
         id="text202"
         style="font-variant:normal;font-weight:normal;font-size:9.99975586px;font-family:'Noto Sans';-inkscape-font-specification:NotoSans-Regular;writing-mode:lr-tb;fill:#000000;fill-opacity:1;fill-rule:nonzero;stroke:none"
         transform="translate(154,433)"><tspan
           id="tspan200"
           y="0"
           x="0 2.9999268 8.9997807 14.999634 20.999487 23.999414 26.249359 32.249214 38.249065 41.248993 43.49894 49.498791 55.498646 58.498573">(128, 32, 17) </tspan></text>
<path
         id="path204"
         style="fill:none;stroke:#000000;stroke-width:1;stroke-linecap:butt;stroke-linejoin:miter;stroke-miterlimit:10;stroke-dasharray:none;stroke-opacity:1"
         d="m 102,441 h 47 v 21 h -47 z" /><text
         id="text208"
         style="font-variant:normal;font-weight:normal;font-size:9.99975586px;font-family:'Noto Sans';-inkscape-font-specification:NotoSans-Regular;writing-mode:lr-tb;fill:#000000;fill-opacity:1;fill-rule:nonzero;stroke:none"
         transform="translate(107,454)"><tspan
           id="tspan206"
           y="0"
           x="0 5.9998536 11.999707 15.749616 21.74947 27.749323 31.499231 34.499157">output: </tspan></text>
<path
         id="path210"
         style="fill:none;stroke:#000000;stroke-width:1;stroke-linecap:butt;stroke-linejoin:miter;stroke-miterlimit:10;stroke-dasharray:none;stroke-opacity:1"
         d="m 149,441 h 71 v 21 h -71 z" /><text
         id="text214"
         style="font-variant:normal;font-weight:normal;font-size:9.99975586px;font-family:'Noto Sans';-inkscape-font-specification:NotoSans-Regular;writing-mode:lr-tb;fill:#000000;fill-opacity:1;fill-rule:nonzero;stroke:none"
         transform="translate(159.5,454)"><tspan
           id="tspan212"
           y="0"
           x="0 2.9999268 8.9997807 14.999634 20.999487 23.999414 26.249359 32.249214 38.249065 44.24892 47.248848">(128, 544) </tspan></text>
<path
         id="path216"
         style="fill:none;stroke:#000000;stroke-width:1;stroke-linecap:butt;stroke-linejoin:miter;stroke-miterlimit:10;stroke-dasharray:none;stroke-opacity:1"
         d="m 137,384.367 c 0,7.813 0,16.906 0,25.449" /><path
         id="path218"
         style="fill:#000000;fill-opacity:1;fill-rule:nonzero;stroke:#000000;stroke-width:1;stroke-linecap:butt;stroke-linejoin:miter;stroke-miterlimit:10;stroke-dasharray:none;stroke-opacity:1"
         d="m 140.5,409.84 -3.5,10 -3.5,-10 z" /><path
         id="path220"
         style="fill:#c1ffc1;fill-opacity:1;fill-rule:nonzero;stroke:none"
         d="m 60,498 h 154 v 42 H 60 Z" /><path
         id="path222"
         style="fill:none;stroke:#000000;stroke-width:1;stroke-linecap:butt;stroke-linejoin:miter;stroke-miterlimit:10;stroke-dasharray:none;stroke-opacity:1"
         d="m 60,498 h 47 v 42 H 60 Z" /><text
         id="text228"
         style="font-variant:normal;font-weight:normal;font-size:9.99975586px;font-family:'Noto Sans';-inkscape-font-specification:NotoSans-Regular;writing-mode:lr-tb;fill:#000000;fill-opacity:1;fill-rule:nonzero;stroke:none"
         transform="translate(68.5,516)"><tspan
           id="tspan224"
           y="0"
           x="0 5.239872 7.4998169 13.499671 19.499525 24.749395">Linear</tspan><tspan
           id="tspan226"
           y="11.000002"
           x="-3.5000045 2.4998491 8.4997025 14.499557 18.249464 24.249319 27.249245">depth:1</tspan></text>
<path
         id="path230"
         style="fill:none;stroke:#000000;stroke-width:1;stroke-linecap:butt;stroke-linejoin:miter;stroke-miterlimit:10;stroke-dasharray:none;stroke-opacity:1"
         d="m 107,498 h 47 v 21 h -47 z" /><text
         id="text234"
         style="font-variant:normal;font-weight:normal;font-size:9.99975586px;font-family:'Noto Sans';-inkscape-font-specification:NotoSans-Regular;writing-mode:lr-tb;fill:#000000;fill-opacity:1;fill-rule:nonzero;stroke:none"
         transform="translate(116.5,511)"><tspan
           id="tspan232"
           y="0"
           x="0 2.2499452 8.2497988 14.249652 20.249506 23.999414">input:</tspan></text>
<path
         id="path236"
         style="fill:none;stroke:#000000;stroke-width:1;stroke-linecap:butt;stroke-linejoin:miter;stroke-miterlimit:10;stroke-dasharray:none;stroke-opacity:1"
         d="m 154,498 h 60 v 21 h -60 z" /><text
         id="text240"
         style="font-variant:normal;font-weight:normal;font-size:9.99975586px;font-family:'Noto Sans';-inkscape-font-specification:NotoSans-Regular;writing-mode:lr-tb;fill:#000000;fill-opacity:1;fill-rule:nonzero;stroke:none"
         transform="translate(159,511)"><tspan
           id="tspan238"
           y="0"
           x="0 2.9999268 8.9997807 14.999634 20.999487 23.999414 26.249359 32.249214 38.249065 44.24892 47.248848">(128, 544) </tspan></text>
<path
         id="path242"
         style="fill:none;stroke:#000000;stroke-width:1;stroke-linecap:butt;stroke-linejoin:miter;stroke-miterlimit:10;stroke-dasharray:none;stroke-opacity:1"
         d="m 107,519 h 47 v 21 h -47 z" /><text
         id="text246"
         style="font-variant:normal;font-weight:normal;font-size:9.99975586px;font-family:'Noto Sans';-inkscape-font-specification:NotoSans-Regular;writing-mode:lr-tb;fill:#000000;fill-opacity:1;fill-rule:nonzero;stroke:none"
         transform="translate(112,532)"><tspan
           id="tspan244"
           y="0"
           x="0 5.9998536 11.999707 15.749616 21.74947 27.749323 31.499231 34.499157">output: </tspan></text>
<path
         id="path248"
         style="fill:none;stroke:#000000;stroke-width:1;stroke-linecap:butt;stroke-linejoin:miter;stroke-miterlimit:10;stroke-dasharray:none;stroke-opacity:1"
         d="m 154,519 h 60 v 21 h -60 z" /><text
         id="text252"
         style="font-variant:normal;font-weight:normal;font-size:9.99975586px;font-family:'Noto Sans';-inkscape-font-specification:NotoSans-Regular;writing-mode:lr-tb;fill:#000000;fill-opacity:1;fill-rule:nonzero;stroke:none"
         transform="translate(165,532)"><tspan
           id="tspan250"
           y="0"
           x="0 2.9999268 8.9997807 14.999634 20.999487 23.999414 26.249359 32.249214 35.249142">(128, 1) </tspan></text>
<path
         id="path254"
         style="fill:none;stroke:#000000;stroke-width:1;stroke-linecap:butt;stroke-linejoin:miter;stroke-miterlimit:10;stroke-dasharray:none;stroke-opacity:1"
         d="m 137,462.367 c 0,7.813 0,16.906 0,25.449" /><path
         id="path256"
         style="fill:#000000;fill-opacity:1;fill-rule:nonzero;stroke:#000000;stroke-width:1;stroke-linecap:butt;stroke-linejoin:miter;stroke-miterlimit:10;stroke-dasharray:none;stroke-opacity:1"
         d="m 140.5,487.84 -3.5,10 -3.5,-10 z" /><path
         id="path258"
         style="fill:#ffffe0;fill-opacity:1;fill-rule:nonzero;stroke:none"
         d="m 76,576 h 122 v 32 H 76 Z" /><path
         id="path260"
         style="fill:none;stroke:#000000;stroke-width:1;stroke-linecap:butt;stroke-linejoin:miter;stroke-miterlimit:10;stroke-dasharray:none;stroke-opacity:1"
         d="m 76,576 h 76 v 32 H 76 Z" /><text
         id="text266"
         style="font-variant:normal;font-weight:normal;font-size:9.99975586px;font-family:'Noto Sans';-inkscape-font-specification:NotoSans-Regular;writing-mode:lr-tb;fill:#000000;fill-opacity:1;fill-rule:nonzero;stroke:none"
         transform="translate(81,589)"><tspan
           id="tspan262"
           y="0"
           x="0 5.9998536 11.999707 15.749616 21.74947 27.749323 31.499231 34.499157 38.249065 44.24892 50.248775 54.748665 60.748516">output-tensor</tspan><tspan
           id="tspan264"
           y="11.000002"
           x="14.499996 20.499849 26.499702 32.499557 36.249466 42.249321 45.249245">depth:0</tspan></text>
<path
         id="path268"
         style="fill:none;stroke:#000000;stroke-width:1;stroke-linecap:butt;stroke-linejoin:miter;stroke-miterlimit:10;stroke-dasharray:none;stroke-opacity:1"
         d="m 152,576 h 46 v 32 h -46 z" /><text
         id="text272"
         style="font-variant:normal;font-weight:normal;font-size:9.99975586px;font-family:'Noto Sans';-inkscape-font-specification:NotoSans-Regular;writing-mode:lr-tb;fill:#000000;fill-opacity:1;fill-rule:nonzero;stroke:none"
         transform="translate(157,594.5)"><tspan
           id="tspan270"
           y="0"
           x="0 2.9999268 8.9997807 14.999634 20.999487 23.999414 26.249359 32.249214">(128, 1)</tspan></text>
<path
         id="path274"
         style="fill:none;stroke:#000000;stroke-width:1;stroke-linecap:butt;stroke-linejoin:miter;stroke-miterlimit:10;stroke-dasharray:none;stroke-opacity:1"
         d="m 137,540.156 c 0,7.957 0,17.184 0,25.578" /><path
         id="path276"
         style="fill:#000000;fill-opacity:1;fill-rule:nonzero;stroke:#000000;stroke-width:1;stroke-linecap:butt;stroke-linejoin:miter;stroke-miterlimit:10;stroke-dasharray:none;stroke-opacity:1"
         d="m 140.5,565.762 -3.5,10 -3.5,-10 z" /></g></g></svg>