<?xml version="1.0" encoding="UTF-8" standalone="no"?>
<svg
   xmlns:dc="http://purl.org/dc/elements/1.1/"
   xmlns:cc="http://creativecommons.org/ns#"
   xmlns:rdf="http://www.w3.org/1999/02/22-rdf-syntax-ns#"
   xmlns:svg="http://www.w3.org/2000/svg"
   xmlns="http://www.w3.org/2000/svg"
   viewBox="0 0 312 552"
   height="552"
   width="312"
   xml:space="preserve"
   id="svg2"
   version="1.1"><metadata
     id="metadata8"><rdf:RDF><cc:Work
         rdf:about=""><dc:format>image/svg+xml</dc:format><dc:type
           rdf:resource="http://purl.org/dc/dcmitype/StillImage" /></cc:Work></rdf:RDF></metadata><defs
     id="defs6" /><g
     transform="matrix(1.3333333,0,0,1.3333333,0,1.38e-5)"
     id="g10"><g
       id="g12"><path
         id="path14"
         style="fill:#ffffe0;fill-opacity:1;fill-rule:nonzero;stroke:none"
         d="M 57,40 H 177 V 72 H 57 Z" /><path
         id="path16"
         style="fill:none;stroke:#000000;stroke-width:1;stroke-linecap:butt;stroke-linejoin:miter;stroke-miterlimit:10;stroke-dasharray:none;stroke-opacity:1"
         d="m 57,40 h 68 V 72 H 57 Z" /><text
         id="text22"
         style="font-variant:normal;font-weight:normal;font-size:9.99975586px;font-family:'Noto Sans';-inkscape-font-specification:NotoSans-Regular;writing-mode:lr-tb;fill:#000000;fill-opacity:1;fill-rule:nonzero;stroke:none"
         transform="translate(62,53)"><tspan
           id="tspan18"
           y="0"
           x="0 2.2499452 8.2497988 14.249652 20.249506 23.999414 26.999342 30.74925 36.749104 42.748959 47.248848 53.248699">input-tensor</tspan><tspan
           id="tspan20"
           y="11.000002"
           x="10.500004 16.499857 22.49971 28.499565 32.249474 38.249325 41.249252">depth:0</tspan></text>
<path
         id="path24"
         style="fill:none;stroke:#000000;stroke-width:1;stroke-linecap:butt;stroke-linejoin:miter;stroke-miterlimit:10;stroke-dasharray:none;stroke-opacity:1"
         d="m 125,40 h 52 v 32 h -52 z" /><text
         id="text28"
         style="font-variant:normal;font-weight:normal;font-size:9.99975586px;font-family:'Noto Sans';-inkscape-font-specification:NotoSans-Regular;writing-mode:lr-tb;fill:#000000;fill-opacity:1;fill-rule:nonzero;stroke:none"
         transform="translate(130,58.5)"><tspan
           id="tspan26"
           y="0"
           x="0 2.9999268 8.9997807 14.999634 20.999487 23.999414 26.249359 32.249214 38.249065">(128, 19)</tspan></text>
<path
         id="path30"
         style="fill:#c1ffc1;fill-opacity:1;fill-rule:nonzero;stroke:none"
         d="m 40,108 h 154 v 42 H 40 Z" /><path
         id="path32"
         style="fill:none;stroke:#000000;stroke-width:1;stroke-linecap:butt;stroke-linejoin:miter;stroke-miterlimit:10;stroke-dasharray:none;stroke-opacity:1"
         d="m 40,108 h 47 v 42 H 40 Z" /><text
         id="text38"
         style="font-variant:normal;font-weight:normal;font-size:9.99975586px;font-family:'Noto Sans';-inkscape-font-specification:NotoSans-Regular;writing-mode:lr-tb;fill:#000000;fill-opacity:1;fill-rule:nonzero;stroke:none"
         transform="translate(48.5,126)"><tspan
           id="tspan34"
           y="0"
           x="0 5.239872 7.4998169 13.499671 19.499525 24.749395">Linear</tspan><tspan
           id="tspan36"
           y="11.000002"
           x="-3.5000045 2.4998491 8.4997025 14.499557 18.249464 24.249319 27.249245">depth:1</tspan></text>
<path
         id="path40"
         style="fill:none;stroke:#000000;stroke-width:1;stroke-linecap:butt;stroke-linejoin:miter;stroke-miterlimit:10;stroke-dasharray:none;stroke-opacity:1"
         d="m 87,108 h 47 v 21 H 87 Z" /><text
         id="text44"
         style="font-variant:normal;font-weight:normal;font-size:9.99975586px;font-family:'Noto Sans';-inkscape-font-specification:NotoSans-Regular;writing-mode:lr-tb;fill:#000000;fill-opacity:1;fill-rule:nonzero;stroke:none"
         transform="translate(96.5,121)"><tspan
           id="tspan42"
           y="0"
           x="0 2.2499452 8.2497988 14.249652 20.249506 23.999414">input:</tspan></text>
<path
         id="path46"
         style="fill:none;stroke:#000000;stroke-width:1;stroke-linecap:butt;stroke-linejoin:miter;stroke-miterlimit:10;stroke-dasharray:none;stroke-opacity:1"
         d="m 134,108 h 60 v 21 h -60 z" /><text
         id="text50"
         style="font-variant:normal;font-weight:normal;font-size:9.99975586px;font-family:'Noto Sans';-inkscape-font-specification:NotoSans-Regular;writing-mode:lr-tb;fill:#000000;fill-opacity:1;fill-rule:nonzero;stroke:none"
         transform="translate(142,121)"><tspan
           id="tspan48"
           y="0"
           x="0 2.9999268 8.9997807 14.999634 20.999487 23.999414 26.249359 32.249214 38.249065 41.248993">(128, 19) </tspan></text>
<path
         id="path52"
         style="fill:none;stroke:#000000;stroke-width:1;stroke-linecap:butt;stroke-linejoin:miter;stroke-miterlimit:10;stroke-dasharray:none;stroke-opacity:1"
         d="m 87,129 h 47 v 21 H 87 Z" /><text
         id="text56"
         style="font-variant:normal;font-weight:normal;font-size:9.99975586px;font-family:'Noto Sans';-inkscape-font-specification:NotoSans-Regular;writing-mode:lr-tb;fill:#000000;fill-opacity:1;fill-rule:nonzero;stroke:none"
         transform="translate(92,142)"><tspan
           id="tspan54"
           y="0"
           x="0 5.9998536 11.999707 15.749616 21.74947 27.749323 31.499231 34.499157">output: </tspan></text>
<path
         id="path58"
         style="fill:none;stroke:#000000;stroke-width:1;stroke-linecap:butt;stroke-linejoin:miter;stroke-miterlimit:10;stroke-dasharray:none;stroke-opacity:1"
         d="m 134,129 h 60 v 21 h -60 z" /><text
         id="text62"
         style="font-variant:normal;font-weight:normal;font-size:9.99975586px;font-family:'Noto Sans';-inkscape-font-specification:NotoSans-Regular;writing-mode:lr-tb;fill:#000000;fill-opacity:1;fill-rule:nonzero;stroke:none"
         transform="translate(139,142)"><tspan
           id="tspan60"
           y="0"
           x="0 2.9999268 8.9997807 14.999634 20.999487 23.999414 26.249359 32.249214 38.249065 44.24892 47.248848">(128, 200) </tspan></text>
<path
         id="path64"
         style="fill:none;stroke:#000000;stroke-width:1;stroke-linecap:butt;stroke-linejoin:miter;stroke-miterlimit:10;stroke-dasharray:none;stroke-opacity:1"
         d="m 117,72.059 c 0,7.488 0,16.82 0,25.703" /><path
         id="path66"
         style="fill:#000000;fill-opacity:1;fill-rule:nonzero;stroke:#000000;stroke-width:1;stroke-linecap:butt;stroke-linejoin:miter;stroke-miterlimit:10;stroke-dasharray:none;stroke-opacity:1"
         d="m 120.5,97.844 -3.5,10 -3.5,-10 z" /><path
         id="path68"
         style="fill:#c1ffc1;fill-opacity:1;fill-rule:nonzero;stroke:none"
         d="m 40,186 h 154 v 42 H 40 Z" /><path
         id="path70"
         style="fill:none;stroke:#000000;stroke-width:1;stroke-linecap:butt;stroke-linejoin:miter;stroke-miterlimit:10;stroke-dasharray:none;stroke-opacity:1"
         d="m 40,186 h 47 v 42 H 40 Z" /><text
         id="text76"
         style="font-variant:normal;font-weight:normal;font-size:9.99975586px;font-family:'Noto Sans';-inkscape-font-specification:NotoSans-Regular;writing-mode:lr-tb;fill:#000000;fill-opacity:1;fill-rule:nonzero;stroke:none"
         transform="translate(51,204)"><tspan
           id="tspan72"
           y="0"
           x="0 5.9998536 11.999707 17.23958">ReLU</tspan><tspan
           id="tspan74"
           y="11.000002"
           x="-6.0000038 -0.00015000001 5.9997034 11.999557 15.749466 21.749319 24.749247">depth:1</tspan></text>
<path
         id="path78"
         style="fill:none;stroke:#000000;stroke-width:1;stroke-linecap:butt;stroke-linejoin:miter;stroke-miterlimit:10;stroke-dasharray:none;stroke-opacity:1"
         d="m 87,186 h 47 v 21 H 87 Z" /><text
         id="text82"
         style="font-variant:normal;font-weight:normal;font-size:9.99975586px;font-family:'Noto Sans';-inkscape-font-specification:NotoSans-Regular;writing-mode:lr-tb;fill:#000000;fill-opacity:1;fill-rule:nonzero;stroke:none"
         transform="translate(96.5,199)"><tspan
           id="tspan80"
           y="0"
           x="0 2.2499452 8.2497988 14.249652 20.249506 23.999414">input:</tspan></text>
<path
         id="path84"
         style="fill:none;stroke:#000000;stroke-width:1;stroke-linecap:butt;stroke-linejoin:miter;stroke-miterlimit:10;stroke-dasharray:none;stroke-opacity:1"
         d="m 134,186 h 60 v 21 h -60 z" /><text
         id="text88"
         style="font-variant:normal;font-weight:normal;font-size:9.99975586px;font-family:'Noto Sans';-inkscape-font-specification:NotoSans-Regular;writing-mode:lr-tb;fill:#000000;fill-opacity:1;fill-rule:nonzero;stroke:none"
         transform="translate(139,199)"><tspan
           id="tspan86"
           y="0"
           x="0 2.9999268 8.9997807 14.999634 20.999487 23.999414 26.249359 32.249214 38.249065 44.24892 47.248848">(128, 200) </tspan></text>
<path
         id="path90"
         style="fill:none;stroke:#000000;stroke-width:1;stroke-linecap:butt;stroke-linejoin:miter;stroke-miterlimit:10;stroke-dasharray:none;stroke-opacity:1"
         d="m 87,207 h 47 v 21 H 87 Z" /><text
         id="text94"
         style="font-variant:normal;font-weight:normal;font-size:9.99975586px;font-family:'Noto Sans';-inkscape-font-specification:NotoSans-Regular;writing-mode:lr-tb;fill:#000000;fill-opacity:1;fill-rule:nonzero;stroke:none"
         transform="translate(92,220)"><tspan
           id="tspan92"
           y="0"
           x="0 5.9998536 11.999707 15.749616 21.74947 27.749323 31.499231 34.499157">output: </tspan></text>
<path
         id="path96"
         style="fill:none;stroke:#000000;stroke-width:1;stroke-linecap:butt;stroke-linejoin:miter;stroke-miterlimit:10;stroke-dasharray:none;stroke-opacity:1"
         d="m 134,207 h 60 v 21 h -60 z" /><text
         id="text100"
         style="font-variant:normal;font-weight:normal;font-size:9.99975586px;font-family:'Noto Sans';-inkscape-font-specification:NotoSans-Regular;writing-mode:lr-tb;fill:#000000;fill-opacity:1;fill-rule:nonzero;stroke:none"
         transform="translate(139,220)"><tspan
           id="tspan98"
           y="0"
           x="0 2.9999268 8.9997807 14.999634 20.999487 23.999414 26.249359 32.249214 38.249065 44.24892 47.248848">(128, 200) </tspan></text>
<path
         id="path102"
         style="fill:none;stroke:#000000;stroke-width:1;stroke-linecap:butt;stroke-linejoin:miter;stroke-miterlimit:10;stroke-dasharray:none;stroke-opacity:1"
         d="m 117,150.367 c 0,7.813 0,16.906 0,25.449" /><path
         id="path104"
         style="fill:#000000;fill-opacity:1;fill-rule:nonzero;stroke:#000000;stroke-width:1;stroke-linecap:butt;stroke-linejoin:miter;stroke-miterlimit:10;stroke-dasharray:none;stroke-opacity:1"
         d="m 120.5,175.84 -3.5,10 -3.5,-10 z" /><path
         id="path106"
         style="fill:#c1ffc1;fill-opacity:1;fill-rule:nonzero;stroke:none"
         d="m 40,264 h 154 v 42 H 40 Z" /><path
         id="path108"
         style="fill:none;stroke:#000000;stroke-width:1;stroke-linecap:butt;stroke-linejoin:miter;stroke-miterlimit:10;stroke-dasharray:none;stroke-opacity:1"
         d="m 40,264 h 47 v 42 H 40 Z" /><text
         id="text114"
         style="font-variant:normal;font-weight:normal;font-size:9.99975586px;font-family:'Noto Sans';-inkscape-font-specification:NotoSans-Regular;writing-mode:lr-tb;fill:#000000;fill-opacity:1;fill-rule:nonzero;stroke:none"
         transform="translate(48.5,282)"><tspan
           id="tspan110"
           y="0"
           x="0 5.239872 7.4998169 13.499671 19.499525 24.749395">Linear</tspan><tspan
           id="tspan112"
           y="11.000002"
           x="-3.5000045 2.4998491 8.4997025 14.499557 18.249464 24.249319 27.249245">depth:1</tspan></text>
<path
         id="path116"
         style="fill:none;stroke:#000000;stroke-width:1;stroke-linecap:butt;stroke-linejoin:miter;stroke-miterlimit:10;stroke-dasharray:none;stroke-opacity:1"
         d="m 87,264 h 47 v 21 H 87 Z" /><text
         id="text120"
         style="font-variant:normal;font-weight:normal;font-size:9.99975586px;font-family:'Noto Sans';-inkscape-font-specification:NotoSans-Regular;writing-mode:lr-tb;fill:#000000;fill-opacity:1;fill-rule:nonzero;stroke:none"
         transform="translate(96.5,277)"><tspan
           id="tspan118"
           y="0"
           x="0 2.2499452 8.2497988 14.249652 20.249506 23.999414">input:</tspan></text>
<path
         id="path122"
         style="fill:none;stroke:#000000;stroke-width:1;stroke-linecap:butt;stroke-linejoin:miter;stroke-miterlimit:10;stroke-dasharray:none;stroke-opacity:1"
         d="m 134,264 h 60 v 21 h -60 z" /><text
         id="text126"
         style="font-variant:normal;font-weight:normal;font-size:9.99975586px;font-family:'Noto Sans';-inkscape-font-specification:NotoSans-Regular;writing-mode:lr-tb;fill:#000000;fill-opacity:1;fill-rule:nonzero;stroke:none"
         transform="translate(139,277)"><tspan
           id="tspan124"
           y="0"
           x="0 2.9999268 8.9997807 14.999634 20.999487 23.999414 26.249359 32.249214 38.249065 44.24892 47.248848">(128, 200) </tspan></text>
<path
         id="path128"
         style="fill:none;stroke:#000000;stroke-width:1;stroke-linecap:butt;stroke-linejoin:miter;stroke-miterlimit:10;stroke-dasharray:none;stroke-opacity:1"
         d="m 87,285 h 47 v 21 H 87 Z" /><text
         id="text132"
         style="font-variant:normal;font-weight:normal;font-size:9.99975586px;font-family:'Noto Sans';-inkscape-font-specification:NotoSans-Regular;writing-mode:lr-tb;fill:#000000;fill-opacity:1;fill-rule:nonzero;stroke:none"
         transform="translate(92,298)"><tspan
           id="tspan130"
           y="0"
           x="0 5.9998536 11.999707 15.749616 21.74947 27.749323 31.499231 34.499157">output: </tspan></text>
<path
         id="path134"
         style="fill:none;stroke:#000000;stroke-width:1;stroke-linecap:butt;stroke-linejoin:miter;stroke-miterlimit:10;stroke-dasharray:none;stroke-opacity:1"
         d="m 134,285 h 60 v 21 h -60 z" /><text
         id="text138"
         style="font-variant:normal;font-weight:normal;font-size:9.99975586px;font-family:'Noto Sans';-inkscape-font-specification:NotoSans-Regular;writing-mode:lr-tb;fill:#000000;fill-opacity:1;fill-rule:nonzero;stroke:none"
         transform="translate(145,298)"><tspan
           id="tspan136"
           y="0"
           x="0 2.9999268 8.9997807 14.999634 20.999487 23.999414 26.249359 32.249214 35.249142">(128, 1) </tspan></text>
<path
         id="path140"
         style="fill:none;stroke:#000000;stroke-width:1;stroke-linecap:butt;stroke-linejoin:miter;stroke-miterlimit:10;stroke-dasharray:none;stroke-opacity:1"
         d="m 117,228.367 c 0,7.813 0,16.906 0,25.449" /><path
         id="path142"
         style="fill:#000000;fill-opacity:1;fill-rule:nonzero;stroke:#000000;stroke-width:1;stroke-linecap:butt;stroke-linejoin:miter;stroke-miterlimit:10;stroke-dasharray:none;stroke-opacity:1"
         d="m 120.5,253.84 -3.5,10 -3.5,-10 z" /><path
         id="path144"
         style="fill:#ffffe0;fill-opacity:1;fill-rule:nonzero;stroke:none"
         d="m 56,342 h 122 v 32 H 56 Z" /><path
         id="path146"
         style="fill:none;stroke:#000000;stroke-width:1;stroke-linecap:butt;stroke-linejoin:miter;stroke-miterlimit:10;stroke-dasharray:none;stroke-opacity:1"
         d="m 56,342 h 76 v 32 H 56 Z" /><text
         id="text152"
         style="font-variant:normal;font-weight:normal;font-size:9.99975586px;font-family:'Noto Sans';-inkscape-font-specification:NotoSans-Regular;writing-mode:lr-tb;fill:#000000;fill-opacity:1;fill-rule:nonzero;stroke:none"
         transform="translate(61,355)"><tspan
           id="tspan148"
           y="0"
           x="0 5.9998536 11.999707 15.749616 21.74947 27.749323 31.499231 34.499157 38.249065 44.24892 50.248775 54.748665 60.748516">output-tensor</tspan><tspan
           id="tspan150"
           y="11.000002"
           x="14.499996 20.499849 26.499702 32.499557 36.249466 42.249321 45.249245">depth:0</tspan></text>
<path
         id="path154"
         style="fill:none;stroke:#000000;stroke-width:1;stroke-linecap:butt;stroke-linejoin:miter;stroke-miterlimit:10;stroke-dasharray:none;stroke-opacity:1"
         d="m 132,342 h 46 v 32 h -46 z" /><text
         id="text158"
         style="font-variant:normal;font-weight:normal;font-size:9.99975586px;font-family:'Noto Sans';-inkscape-font-specification:NotoSans-Regular;writing-mode:lr-tb;fill:#000000;fill-opacity:1;fill-rule:nonzero;stroke:none"
         transform="translate(137,360.5)"><tspan
           id="tspan156"
           y="0"
           x="0 2.9999268 8.9997807 14.999634 20.999487 23.999414 26.249359 32.249214">(128, 1)</tspan></text>
<path
         id="path160"
         style="fill:none;stroke:#000000;stroke-width:1;stroke-linecap:butt;stroke-linejoin:miter;stroke-miterlimit:10;stroke-dasharray:none;stroke-opacity:1"
         d="m 117,306.156 c 0,7.957 0,17.184 0,25.578" /><path
         id="path162"
         style="fill:#000000;fill-opacity:1;fill-rule:nonzero;stroke:#000000;stroke-width:1;stroke-linecap:butt;stroke-linejoin:miter;stroke-miterlimit:10;stroke-dasharray:none;stroke-opacity:1"
         d="m 120.5,331.762 -3.5,10 -3.5,-10 z" /></g></g></svg>