<?xml version="1.0" encoding="UTF-8" standalone="no"?>
<svg
   xmlns:dc="http://purl.org/dc/elements/1.1/"
   xmlns:cc="http://creativecommons.org/ns#"
   xmlns:rdf="http://www.w3.org/1999/02/22-rdf-syntax-ns#"
   xmlns:svg="http://www.w3.org/2000/svg"
   xmlns="http://www.w3.org/2000/svg"
   viewBox="0 0 308 1072"
   height="1072"
   width="308"
   xml:space="preserve"
   id="svg2"
   version="1.1"><metadata
     id="metadata8"><rdf:RDF><cc:Work
         rdf:about=""><dc:format>image/svg+xml</dc:format><dc:type
           rdf:resource="http://purl.org/dc/dcmitype/StillImage" /></cc:Work></rdf:RDF></metadata><defs
     id="defs6" /><g
     transform="matrix(1.3333333,0,0,1.3333333,0,2.68e-5)"
     id="g10"><g
       id="g12"><path
         id="path14"
         style="fill:#ffffe0;fill-opacity:1;fill-rule:nonzero;stroke:none"
         d="m 55.5,40 h 120 v 32 h -120 z" /><path
         id="path16"
         style="fill:none;stroke:#000000;stroke-width:1;stroke-linecap:butt;stroke-linejoin:miter;stroke-miterlimit:10;stroke-dasharray:none;stroke-opacity:1"
         d="m 55.5,40 h 68 v 32 h -68 z" /><text
         id="text22"
         style="font-variant:normal;font-weight:normal;font-size:9.99975586px;font-family:'Noto Sans';-inkscape-font-specification:NotoSans-Regular;writing-mode:lr-tb;fill:#000000;fill-opacity:1;fill-rule:nonzero;stroke:none"
         transform="translate(60.5,53)"><tspan
           id="tspan18"
           y="0"
           x="0 2.2499452 8.2497988 14.249652 20.249506 23.999414 26.999342 30.74925 36.749104 42.748959 47.248848 53.248699">input-tensor</tspan><tspan
           id="tspan20"
           y="11.000002"
           x="10.500004 16.499857 22.49971 28.499565 32.249474 38.249325 41.249252">depth:0</tspan></text>
<path
         id="path24"
         style="fill:none;stroke:#000000;stroke-width:1;stroke-linecap:butt;stroke-linejoin:miter;stroke-miterlimit:10;stroke-dasharray:none;stroke-opacity:1"
         d="m 123.5,40 h 52 v 32 h -52 z" /><text
         id="text28"
         style="font-variant:normal;font-weight:normal;font-size:9.99975586px;font-family:'Noto Sans';-inkscape-font-specification:NotoSans-Regular;writing-mode:lr-tb;fill:#000000;fill-opacity:1;fill-rule:nonzero;stroke:none"
         transform="translate(128.5,58.5)"><tspan
           id="tspan26"
           y="0"
           x="0 2.9999268 8.9997807 14.999634 20.999487 23.999414 26.249359 32.249214 38.249065">(128, 19)</tspan></text>
<path
         id="path30"
         style="fill:#c1ffc1;fill-opacity:1;fill-rule:nonzero;stroke:none"
         d="m 41.5,108 h 148 v 42 h -148 z" /><path
         id="path32"
         style="fill:none;stroke:#000000;stroke-width:1;stroke-linecap:butt;stroke-linejoin:miter;stroke-miterlimit:10;stroke-dasharray:none;stroke-opacity:1"
         d="m 41.5,108 h 47 v 42 h -47 z" /><text
         id="text38"
         style="font-variant:normal;font-weight:normal;font-size:9.99975586px;font-family:'Noto Sans';-inkscape-font-specification:NotoSans-Regular;writing-mode:lr-tb;fill:#000000;fill-opacity:1;fill-rule:nonzero;stroke:none"
         transform="translate(50,126)"><tspan
           id="tspan34"
           y="0"
           x="0 5.239872 7.4998169 13.499671 19.499525 24.749395">Linear</tspan><tspan
           id="tspan36"
           y="11.000002"
           x="-3.5000045 2.4998491 8.4997025 14.499557 18.249464 24.249319 27.249245">depth:1</tspan></text>
<path
         id="path40"
         style="fill:none;stroke:#000000;stroke-width:1;stroke-linecap:butt;stroke-linejoin:miter;stroke-miterlimit:10;stroke-dasharray:none;stroke-opacity:1"
         d="m 88.5,108 h 47 v 21 h -47 z" /><text
         id="text44"
         style="font-variant:normal;font-weight:normal;font-size:9.99975586px;font-family:'Noto Sans';-inkscape-font-specification:NotoSans-Regular;writing-mode:lr-tb;fill:#000000;fill-opacity:1;fill-rule:nonzero;stroke:none"
         transform="translate(98,121)"><tspan
           id="tspan42"
           y="0"
           x="0 2.2499452 8.2497988 14.249652 20.249506 23.999414">input:</tspan></text>
<path
         id="path46"
         style="fill:none;stroke:#000000;stroke-width:1;stroke-linecap:butt;stroke-linejoin:miter;stroke-miterlimit:10;stroke-dasharray:none;stroke-opacity:1"
         d="m 135.5,108 h 54 v 21 h -54 z" /><text
         id="text50"
         style="font-variant:normal;font-weight:normal;font-size:9.99975586px;font-family:'Noto Sans';-inkscape-font-specification:NotoSans-Regular;writing-mode:lr-tb;fill:#000000;fill-opacity:1;fill-rule:nonzero;stroke:none"
         transform="translate(140.5,121)"><tspan
           id="tspan48"
           y="0"
           x="0 2.9999268 8.9997807 14.999634 20.999487 23.999414 26.249359 32.249214 38.249065 41.248993">(128, 19) </tspan></text>
<path
         id="path52"
         style="fill:none;stroke:#000000;stroke-width:1;stroke-linecap:butt;stroke-linejoin:miter;stroke-miterlimit:10;stroke-dasharray:none;stroke-opacity:1"
         d="m 88.5,129 h 47 v 21 h -47 z" /><text
         id="text56"
         style="font-variant:normal;font-weight:normal;font-size:9.99975586px;font-family:'Noto Sans';-inkscape-font-specification:NotoSans-Regular;writing-mode:lr-tb;fill:#000000;fill-opacity:1;fill-rule:nonzero;stroke:none"
         transform="translate(93.5,142)"><tspan
           id="tspan54"
           y="0"
           x="0 5.9998536 11.999707 15.749616 21.74947 27.749323 31.499231 34.499157">output: </tspan></text>
<path
         id="path58"
         style="fill:none;stroke:#000000;stroke-width:1;stroke-linecap:butt;stroke-linejoin:miter;stroke-miterlimit:10;stroke-dasharray:none;stroke-opacity:1"
         d="m 135.5,129 h 54 v 21 h -54 z" /><text
         id="text62"
         style="font-variant:normal;font-weight:normal;font-size:9.99975586px;font-family:'Noto Sans';-inkscape-font-specification:NotoSans-Regular;writing-mode:lr-tb;fill:#000000;fill-opacity:1;fill-rule:nonzero;stroke:none"
         transform="translate(140.5,142)"><tspan
           id="tspan60"
           y="0"
           x="0 2.9999268 8.9997807 14.999634 20.999487 23.999414 26.249359 32.249214 38.249065 41.248993">(128, 20) </tspan></text>
<path
         id="path64"
         style="fill:none;stroke:#000000;stroke-width:1;stroke-linecap:butt;stroke-linejoin:miter;stroke-miterlimit:10;stroke-dasharray:none;stroke-opacity:1"
         d="m 115.5,72.059 c 0,7.488 0,16.82 0,25.703" /><path
         id="path66"
         style="fill:#000000;fill-opacity:1;fill-rule:nonzero;stroke:#000000;stroke-width:1;stroke-linecap:butt;stroke-linejoin:miter;stroke-miterlimit:10;stroke-dasharray:none;stroke-opacity:1"
         d="m 119,97.844 -3.5,10 -3.5,-10 z" /><path
         id="path68"
         style="fill:#c1ffc1;fill-opacity:1;fill-rule:nonzero;stroke:none"
         d="m 41.5,186 h 148 v 42 h -148 z" /><path
         id="path70"
         style="fill:none;stroke:#000000;stroke-width:1;stroke-linecap:butt;stroke-linejoin:miter;stroke-miterlimit:10;stroke-dasharray:none;stroke-opacity:1"
         d="m 41.5,186 h 47 v 42 h -47 z" /><text
         id="text76"
         style="font-variant:normal;font-weight:normal;font-size:9.99975586px;font-family:'Noto Sans';-inkscape-font-specification:NotoSans-Regular;writing-mode:lr-tb;fill:#000000;fill-opacity:1;fill-rule:nonzero;stroke:none"
         transform="translate(52.5,204)"><tspan
           id="tspan72"
           y="0"
           x="0 5.9998536 11.999707 17.23958">ReLU</tspan><tspan
           id="tspan74"
           y="11.000002"
           x="-6.0000038 -0.00015000001 5.9997034 11.999557 15.749466 21.749319 24.749247">depth:1</tspan></text>
<path
         id="path78"
         style="fill:none;stroke:#000000;stroke-width:1;stroke-linecap:butt;stroke-linejoin:miter;stroke-miterlimit:10;stroke-dasharray:none;stroke-opacity:1"
         d="m 88.5,186 h 47 v 21 h -47 z" /><text
         id="text82"
         style="font-variant:normal;font-weight:normal;font-size:9.99975586px;font-family:'Noto Sans';-inkscape-font-specification:NotoSans-Regular;writing-mode:lr-tb;fill:#000000;fill-opacity:1;fill-rule:nonzero;stroke:none"
         transform="translate(98,199)"><tspan
           id="tspan80"
           y="0"
           x="0 2.2499452 8.2497988 14.249652 20.249506 23.999414">input:</tspan></text>
<path
         id="path84"
         style="fill:none;stroke:#000000;stroke-width:1;stroke-linecap:butt;stroke-linejoin:miter;stroke-miterlimit:10;stroke-dasharray:none;stroke-opacity:1"
         d="m 135.5,186 h 54 v 21 h -54 z" /><text
         id="text88"
         style="font-variant:normal;font-weight:normal;font-size:9.99975586px;font-family:'Noto Sans';-inkscape-font-specification:NotoSans-Regular;writing-mode:lr-tb;fill:#000000;fill-opacity:1;fill-rule:nonzero;stroke:none"
         transform="translate(140.5,199)"><tspan
           id="tspan86"
           y="0"
           x="0 2.9999268 8.9997807 14.999634 20.999487 23.999414 26.249359 32.249214 38.249065 41.248993">(128, 20) </tspan></text>
<path
         id="path90"
         style="fill:none;stroke:#000000;stroke-width:1;stroke-linecap:butt;stroke-linejoin:miter;stroke-miterlimit:10;stroke-dasharray:none;stroke-opacity:1"
         d="m 88.5,207 h 47 v 21 h -47 z" /><text
         id="text94"
         style="font-variant:normal;font-weight:normal;font-size:9.99975586px;font-family:'Noto Sans';-inkscape-font-specification:NotoSans-Regular;writing-mode:lr-tb;fill:#000000;fill-opacity:1;fill-rule:nonzero;stroke:none"
         transform="translate(93.5,220)"><tspan
           id="tspan92"
           y="0"
           x="0 5.9998536 11.999707 15.749616 21.74947 27.749323 31.499231 34.499157">output: </tspan></text>
<path
         id="path96"
         style="fill:none;stroke:#000000;stroke-width:1;stroke-linecap:butt;stroke-linejoin:miter;stroke-miterlimit:10;stroke-dasharray:none;stroke-opacity:1"
         d="m 135.5,207 h 54 v 21 h -54 z" /><text
         id="text100"
         style="font-variant:normal;font-weight:normal;font-size:9.99975586px;font-family:'Noto Sans';-inkscape-font-specification:NotoSans-Regular;writing-mode:lr-tb;fill:#000000;fill-opacity:1;fill-rule:nonzero;stroke:none"
         transform="translate(140.5,220)"><tspan
           id="tspan98"
           y="0"
           x="0 2.9999268 8.9997807 14.999634 20.999487 23.999414 26.249359 32.249214 38.249065 41.248993">(128, 20) </tspan></text>
<path
         id="path102"
         style="fill:none;stroke:#000000;stroke-width:1;stroke-linecap:butt;stroke-linejoin:miter;stroke-miterlimit:10;stroke-dasharray:none;stroke-opacity:1"
         d="m 115.5,150.367 c 0,7.813 0,16.906 0,25.449" /><path
         id="path104"
         style="fill:#000000;fill-opacity:1;fill-rule:nonzero;stroke:#000000;stroke-width:1;stroke-linecap:butt;stroke-linejoin:miter;stroke-miterlimit:10;stroke-dasharray:none;stroke-opacity:1"
         d="m 119,175.84 -3.5,10 -3.5,-10 z" /><path
         id="path106"
         style="fill:#c1ffc1;fill-opacity:1;fill-rule:nonzero;stroke:none"
         d="m 41.5,264 h 148 v 42 h -148 z" /><path
         id="path108"
         style="fill:none;stroke:#000000;stroke-width:1;stroke-linecap:butt;stroke-linejoin:miter;stroke-miterlimit:10;stroke-dasharray:none;stroke-opacity:1"
         d="m 41.5,264 h 47 v 42 h -47 z" /><text
         id="text114"
         style="font-variant:normal;font-weight:normal;font-size:9.99975586px;font-family:'Noto Sans';-inkscape-font-specification:NotoSans-Regular;writing-mode:lr-tb;fill:#000000;fill-opacity:1;fill-rule:nonzero;stroke:none"
         transform="translate(50,282)"><tspan
           id="tspan110"
           y="0"
           x="0 5.239872 7.4998169 13.499671 19.499525 24.749395">Linear</tspan><tspan
           id="tspan112"
           y="11.000002"
           x="-3.5000045 2.4998491 8.4997025 14.499557 18.249464 24.249319 27.249245">depth:1</tspan></text>
<path
         id="path116"
         style="fill:none;stroke:#000000;stroke-width:1;stroke-linecap:butt;stroke-linejoin:miter;stroke-miterlimit:10;stroke-dasharray:none;stroke-opacity:1"
         d="m 88.5,264 h 47 v 21 h -47 z" /><text
         id="text120"
         style="font-variant:normal;font-weight:normal;font-size:9.99975586px;font-family:'Noto Sans';-inkscape-font-specification:NotoSans-Regular;writing-mode:lr-tb;fill:#000000;fill-opacity:1;fill-rule:nonzero;stroke:none"
         transform="translate(98,277)"><tspan
           id="tspan118"
           y="0"
           x="0 2.2499452 8.2497988 14.249652 20.249506 23.999414">input:</tspan></text>
<path
         id="path122"
         style="fill:none;stroke:#000000;stroke-width:1;stroke-linecap:butt;stroke-linejoin:miter;stroke-miterlimit:10;stroke-dasharray:none;stroke-opacity:1"
         d="m 135.5,264 h 54 v 21 h -54 z" /><text
         id="text126"
         style="font-variant:normal;font-weight:normal;font-size:9.99975586px;font-family:'Noto Sans';-inkscape-font-specification:NotoSans-Regular;writing-mode:lr-tb;fill:#000000;fill-opacity:1;fill-rule:nonzero;stroke:none"
         transform="translate(140.5,277)"><tspan
           id="tspan124"
           y="0"
           x="0 2.9999268 8.9997807 14.999634 20.999487 23.999414 26.249359 32.249214 38.249065 41.248993">(128, 20) </tspan></text>
<path
         id="path128"
         style="fill:none;stroke:#000000;stroke-width:1;stroke-linecap:butt;stroke-linejoin:miter;stroke-miterlimit:10;stroke-dasharray:none;stroke-opacity:1"
         d="m 88.5,285 h 47 v 21 h -47 z" /><text
         id="text132"
         style="font-variant:normal;font-weight:normal;font-size:9.99975586px;font-family:'Noto Sans';-inkscape-font-specification:NotoSans-Regular;writing-mode:lr-tb;fill:#000000;fill-opacity:1;fill-rule:nonzero;stroke:none"
         transform="translate(93.5,298)"><tspan
           id="tspan130"
           y="0"
           x="0 5.9998536 11.999707 15.749616 21.74947 27.749323 31.499231 34.499157">output: </tspan></text>
<path
         id="path134"
         style="fill:none;stroke:#000000;stroke-width:1;stroke-linecap:butt;stroke-linejoin:miter;stroke-miterlimit:10;stroke-dasharray:none;stroke-opacity:1"
         d="m 135.5,285 h 54 v 21 h -54 z" /><text
         id="text138"
         style="font-variant:normal;font-weight:normal;font-size:9.99975586px;font-family:'Noto Sans';-inkscape-font-specification:NotoSans-Regular;writing-mode:lr-tb;fill:#000000;fill-opacity:1;fill-rule:nonzero;stroke:none"
         transform="translate(140.5,298)"><tspan
           id="tspan136"
           y="0"
           x="0 2.9999268 8.9997807 14.999634 20.999487 23.999414 26.249359 32.249214 38.249065 41.248993">(128, 20) </tspan></text>
<path
         id="path140"
         style="fill:none;stroke:#000000;stroke-width:1;stroke-linecap:butt;stroke-linejoin:miter;stroke-miterlimit:10;stroke-dasharray:none;stroke-opacity:1"
         d="m 115.5,228.367 c 0,7.813 0,16.906 0,25.449" /><path
         id="path142"
         style="fill:#000000;fill-opacity:1;fill-rule:nonzero;stroke:#000000;stroke-width:1;stroke-linecap:butt;stroke-linejoin:miter;stroke-miterlimit:10;stroke-dasharray:none;stroke-opacity:1"
         d="m 119,253.84 -3.5,10 -3.5,-10 z" /><path
         id="path144"
         style="fill:#c1ffc1;fill-opacity:1;fill-rule:nonzero;stroke:none"
         d="m 41.5,342 h 148 v 42 h -148 z" /><path
         id="path146"
         style="fill:none;stroke:#000000;stroke-width:1;stroke-linecap:butt;stroke-linejoin:miter;stroke-miterlimit:10;stroke-dasharray:none;stroke-opacity:1"
         d="m 41.5,342 h 47 v 42 h -47 z" /><text
         id="text152"
         style="font-variant:normal;font-weight:normal;font-size:9.99975586px;font-family:'Noto Sans';-inkscape-font-specification:NotoSans-Regular;writing-mode:lr-tb;fill:#000000;fill-opacity:1;fill-rule:nonzero;stroke:none"
         transform="translate(52.5,360)"><tspan
           id="tspan148"
           y="0"
           x="0 5.9998536 11.999707 17.23958">ReLU</tspan><tspan
           id="tspan150"
           y="11.000002"
           x="-6.0000038 -0.00015000001 5.9997034 11.999557 15.749466 21.749319 24.749247">depth:1</tspan></text>
<path
         id="path154"
         style="fill:none;stroke:#000000;stroke-width:1;stroke-linecap:butt;stroke-linejoin:miter;stroke-miterlimit:10;stroke-dasharray:none;stroke-opacity:1"
         d="m 88.5,342 h 47 v 21 h -47 z" /><text
         id="text158"
         style="font-variant:normal;font-weight:normal;font-size:9.99975586px;font-family:'Noto Sans';-inkscape-font-specification:NotoSans-Regular;writing-mode:lr-tb;fill:#000000;fill-opacity:1;fill-rule:nonzero;stroke:none"
         transform="translate(98,355)"><tspan
           id="tspan156"
           y="0"
           x="0 2.2499452 8.2497988 14.249652 20.249506 23.999414">input:</tspan></text>
<path
         id="path160"
         style="fill:none;stroke:#000000;stroke-width:1;stroke-linecap:butt;stroke-linejoin:miter;stroke-miterlimit:10;stroke-dasharray:none;stroke-opacity:1"
         d="m 135.5,342 h 54 v 21 h -54 z" /><text
         id="text164"
         style="font-variant:normal;font-weight:normal;font-size:9.99975586px;font-family:'Noto Sans';-inkscape-font-specification:NotoSans-Regular;writing-mode:lr-tb;fill:#000000;fill-opacity:1;fill-rule:nonzero;stroke:none"
         transform="translate(140.5,355)"><tspan
           id="tspan162"
           y="0"
           x="0 2.9999268 8.9997807 14.999634 20.999487 23.999414 26.249359 32.249214 38.249065 41.248993">(128, 20) </tspan></text>
<path
         id="path166"
         style="fill:none;stroke:#000000;stroke-width:1;stroke-linecap:butt;stroke-linejoin:miter;stroke-miterlimit:10;stroke-dasharray:none;stroke-opacity:1"
         d="m 88.5,363 h 47 v 21 h -47 z" /><text
         id="text170"
         style="font-variant:normal;font-weight:normal;font-size:9.99975586px;font-family:'Noto Sans';-inkscape-font-specification:NotoSans-Regular;writing-mode:lr-tb;fill:#000000;fill-opacity:1;fill-rule:nonzero;stroke:none"
         transform="translate(93.5,376)"><tspan
           id="tspan168"
           y="0"
           x="0 5.9998536 11.999707 15.749616 21.74947 27.749323 31.499231 34.499157">output: </tspan></text>
<path
         id="path172"
         style="fill:none;stroke:#000000;stroke-width:1;stroke-linecap:butt;stroke-linejoin:miter;stroke-miterlimit:10;stroke-dasharray:none;stroke-opacity:1"
         d="m 135.5,363 h 54 v 21 h -54 z" /><text
         id="text176"
         style="font-variant:normal;font-weight:normal;font-size:9.99975586px;font-family:'Noto Sans';-inkscape-font-specification:NotoSans-Regular;writing-mode:lr-tb;fill:#000000;fill-opacity:1;fill-rule:nonzero;stroke:none"
         transform="translate(140.5,376)"><tspan
           id="tspan174"
           y="0"
           x="0 2.9999268 8.9997807 14.999634 20.999487 23.999414 26.249359 32.249214 38.249065 41.248993">(128, 20) </tspan></text>
<path
         id="path178"
         style="fill:none;stroke:#000000;stroke-width:1;stroke-linecap:butt;stroke-linejoin:miter;stroke-miterlimit:10;stroke-dasharray:none;stroke-opacity:1"
         d="m 115.5,306.367 c 0,7.813 0,16.906 0,25.449" /><path
         id="path180"
         style="fill:#000000;fill-opacity:1;fill-rule:nonzero;stroke:#000000;stroke-width:1;stroke-linecap:butt;stroke-linejoin:miter;stroke-miterlimit:10;stroke-dasharray:none;stroke-opacity:1"
         d="m 119,331.84 -3.5,10 -3.5,-10 z" /><path
         id="path182"
         style="fill:#c1ffc1;fill-opacity:1;fill-rule:nonzero;stroke:none"
         d="m 41.5,420 h 148 v 42 h -148 z" /><path
         id="path184"
         style="fill:none;stroke:#000000;stroke-width:1;stroke-linecap:butt;stroke-linejoin:miter;stroke-miterlimit:10;stroke-dasharray:none;stroke-opacity:1"
         d="m 41.5,420 h 47 v 42 h -47 z" /><text
         id="text190"
         style="font-variant:normal;font-weight:normal;font-size:9.99975586px;font-family:'Noto Sans';-inkscape-font-specification:NotoSans-Regular;writing-mode:lr-tb;fill:#000000;fill-opacity:1;fill-rule:nonzero;stroke:none"
         transform="translate(50,438)"><tspan
           id="tspan186"
           y="0"
           x="0 5.239872 7.4998169 13.499671 19.499525 24.749395">Linear</tspan><tspan
           id="tspan188"
           y="11.000002"
           x="-3.5000045 2.4998491 8.4997025 14.499557 18.249464 24.249319 27.249245">depth:1</tspan></text>
<path
         id="path192"
         style="fill:none;stroke:#000000;stroke-width:1;stroke-linecap:butt;stroke-linejoin:miter;stroke-miterlimit:10;stroke-dasharray:none;stroke-opacity:1"
         d="m 88.5,420 h 47 v 21 h -47 z" /><text
         id="text196"
         style="font-variant:normal;font-weight:normal;font-size:9.99975586px;font-family:'Noto Sans';-inkscape-font-specification:NotoSans-Regular;writing-mode:lr-tb;fill:#000000;fill-opacity:1;fill-rule:nonzero;stroke:none"
         transform="translate(98,433)"><tspan
           id="tspan194"
           y="0"
           x="0 2.2499452 8.2497988 14.249652 20.249506 23.999414">input:</tspan></text>
<path
         id="path198"
         style="fill:none;stroke:#000000;stroke-width:1;stroke-linecap:butt;stroke-linejoin:miter;stroke-miterlimit:10;stroke-dasharray:none;stroke-opacity:1"
         d="m 135.5,420 h 54 v 21 h -54 z" /><text
         id="text202"
         style="font-variant:normal;font-weight:normal;font-size:9.99975586px;font-family:'Noto Sans';-inkscape-font-specification:NotoSans-Regular;writing-mode:lr-tb;fill:#000000;fill-opacity:1;fill-rule:nonzero;stroke:none"
         transform="translate(140.5,433)"><tspan
           id="tspan200"
           y="0"
           x="0 2.9999268 8.9997807 14.999634 20.999487 23.999414 26.249359 32.249214 38.249065 41.248993">(128, 20) </tspan></text>
<path
         id="path204"
         style="fill:none;stroke:#000000;stroke-width:1;stroke-linecap:butt;stroke-linejoin:miter;stroke-miterlimit:10;stroke-dasharray:none;stroke-opacity:1"
         d="m 88.5,441 h 47 v 21 h -47 z" /><text
         id="text208"
         style="font-variant:normal;font-weight:normal;font-size:9.99975586px;font-family:'Noto Sans';-inkscape-font-specification:NotoSans-Regular;writing-mode:lr-tb;fill:#000000;fill-opacity:1;fill-rule:nonzero;stroke:none"
         transform="translate(93.5,454)"><tspan
           id="tspan206"
           y="0"
           x="0 5.9998536 11.999707 15.749616 21.74947 27.749323 31.499231 34.499157">output: </tspan></text>
<path
         id="path210"
         style="fill:none;stroke:#000000;stroke-width:1;stroke-linecap:butt;stroke-linejoin:miter;stroke-miterlimit:10;stroke-dasharray:none;stroke-opacity:1"
         d="m 135.5,441 h 54 v 21 h -54 z" /><text
         id="text214"
         style="font-variant:normal;font-weight:normal;font-size:9.99975586px;font-family:'Noto Sans';-inkscape-font-specification:NotoSans-Regular;writing-mode:lr-tb;fill:#000000;fill-opacity:1;fill-rule:nonzero;stroke:none"
         transform="translate(140.5,454)"><tspan
           id="tspan212"
           y="0"
           x="0 2.9999268 8.9997807 14.999634 20.999487 23.999414 26.249359 32.249214 38.249065 41.248993">(128, 20) </tspan></text>
<path
         id="path216"
         style="fill:none;stroke:#000000;stroke-width:1;stroke-linecap:butt;stroke-linejoin:miter;stroke-miterlimit:10;stroke-dasharray:none;stroke-opacity:1"
         d="m 115.5,384.367 c 0,7.813 0,16.906 0,25.449" /><path
         id="path218"
         style="fill:#000000;fill-opacity:1;fill-rule:nonzero;stroke:#000000;stroke-width:1;stroke-linecap:butt;stroke-linejoin:miter;stroke-miterlimit:10;stroke-dasharray:none;stroke-opacity:1"
         d="m 119,409.84 -3.5,10 -3.5,-10 z" /><path
         id="path220"
         style="fill:#c1ffc1;fill-opacity:1;fill-rule:nonzero;stroke:none"
         d="m 40,498 h 151 v 42 H 40 Z" /><path
         id="path222"
         style="fill:none;stroke:#000000;stroke-width:1;stroke-linecap:butt;stroke-linejoin:miter;stroke-miterlimit:10;stroke-dasharray:none;stroke-opacity:1"
         d="m 40.5,498 h 50 v 42 h -50 z" /><text
         id="text228"
         style="font-variant:normal;font-weight:normal;font-size:9.99975586px;font-family:'Noto Sans';-inkscape-font-specification:NotoSans-Regular;writing-mode:lr-tb;fill:#000000;fill-opacity:1;fill-rule:nonzero;stroke:none"
         transform="translate(45.5,516)"><tspan
           id="tspan224"
           y="0"
           x="0 7.4998169 11.249725 17.249578 23.249434 29.249287 35.249142">Dropout</tspan><tspan
           id="tspan226"
           y="11.000002"
           x="1.5000035 7.4998569 13.499711 19.499565 23.249474 29.249327 32.249252">depth:1</tspan></text>
<path
         id="path230"
         style="fill:none;stroke:#000000;stroke-width:1;stroke-linecap:butt;stroke-linejoin:miter;stroke-miterlimit:10;stroke-dasharray:none;stroke-opacity:1"
         d="m 90.5,498 h 47 v 21 h -47 z" /><text
         id="text234"
         style="font-variant:normal;font-weight:normal;font-size:9.99975586px;font-family:'Noto Sans';-inkscape-font-specification:NotoSans-Regular;writing-mode:lr-tb;fill:#000000;fill-opacity:1;fill-rule:nonzero;stroke:none"
         transform="translate(100,511)"><tspan
           id="tspan232"
           y="0"
           x="0 2.2499452 8.2497988 14.249652 20.249506 23.999414">input:</tspan></text>
<path
         id="path236"
         style="fill:none;stroke:#000000;stroke-width:1;stroke-linecap:butt;stroke-linejoin:miter;stroke-miterlimit:10;stroke-dasharray:none;stroke-opacity:1"
         d="m 137.5,498 h 54 v 21 h -54 z" /><text
         id="text240"
         style="font-variant:normal;font-weight:normal;font-size:9.99975586px;font-family:'Noto Sans';-inkscape-font-specification:NotoSans-Regular;writing-mode:lr-tb;fill:#000000;fill-opacity:1;fill-rule:nonzero;stroke:none"
         transform="translate(142.5,511)"><tspan
           id="tspan238"
           y="0"
           x="0 2.9999268 8.9997807 14.999634 20.999487 23.999414 26.249359 32.249214 38.249065 41.248993">(128, 20) </tspan></text>
<path
         id="path242"
         style="fill:none;stroke:#000000;stroke-width:1;stroke-linecap:butt;stroke-linejoin:miter;stroke-miterlimit:10;stroke-dasharray:none;stroke-opacity:1"
         d="m 90.5,519 h 47 v 21 h -47 z" /><text
         id="text246"
         style="font-variant:normal;font-weight:normal;font-size:9.99975586px;font-family:'Noto Sans';-inkscape-font-specification:NotoSans-Regular;writing-mode:lr-tb;fill:#000000;fill-opacity:1;fill-rule:nonzero;stroke:none"
         transform="translate(95.5,532)"><tspan
           id="tspan244"
           y="0"
           x="0 5.9998536 11.999707 15.749616 21.74947 27.749323 31.499231 34.499157">output: </tspan></text>
<path
         id="path248"
         style="fill:none;stroke:#000000;stroke-width:1;stroke-linecap:butt;stroke-linejoin:miter;stroke-miterlimit:10;stroke-dasharray:none;stroke-opacity:1"
         d="m 137.5,519 h 54 v 21 h -54 z" /><text
         id="text252"
         style="font-variant:normal;font-weight:normal;font-size:9.99975586px;font-family:'Noto Sans';-inkscape-font-specification:NotoSans-Regular;writing-mode:lr-tb;fill:#000000;fill-opacity:1;fill-rule:nonzero;stroke:none"
         transform="translate(142.5,532)"><tspan
           id="tspan250"
           y="0"
           x="0 2.9999268 8.9997807 14.999634 20.999487 23.999414 26.249359 32.249214 38.249065 41.248993">(128, 20) </tspan></text>
<path
         id="path254"
         style="fill:none;stroke:#000000;stroke-width:1;stroke-linecap:butt;stroke-linejoin:miter;stroke-miterlimit:10;stroke-dasharray:none;stroke-opacity:1"
         d="m 115.5,462.367 c 0,7.813 0,16.906 0,25.449" /><path
         id="path256"
         style="fill:#000000;fill-opacity:1;fill-rule:nonzero;stroke:#000000;stroke-width:1;stroke-linecap:butt;stroke-linejoin:miter;stroke-miterlimit:10;stroke-dasharray:none;stroke-opacity:1"
         d="m 119,487.84 -3.5,10 -3.5,-10 z" /><path
         id="path258"
         style="fill:#c1ffc1;fill-opacity:1;fill-rule:nonzero;stroke:none"
         d="m 41.5,576 h 148 v 42 h -148 z" /><path
         id="path260"
         style="fill:none;stroke:#000000;stroke-width:1;stroke-linecap:butt;stroke-linejoin:miter;stroke-miterlimit:10;stroke-dasharray:none;stroke-opacity:1"
         d="m 41.5,576 h 47 v 42 h -47 z" /><text
         id="text266"
         style="font-variant:normal;font-weight:normal;font-size:9.99975586px;font-family:'Noto Sans';-inkscape-font-specification:NotoSans-Regular;writing-mode:lr-tb;fill:#000000;fill-opacity:1;fill-rule:nonzero;stroke:none"
         transform="translate(52.5,594)"><tspan
           id="tspan262"
           y="0"
           x="0 5.9998536 11.999707 17.23958">ReLU</tspan><tspan
           id="tspan264"
           y="11.000002"
           x="-6.0000038 -0.00015000001 5.9997034 11.999557 15.749466 21.749319 24.749247">depth:1</tspan></text>
<path
         id="path268"
         style="fill:none;stroke:#000000;stroke-width:1;stroke-linecap:butt;stroke-linejoin:miter;stroke-miterlimit:10;stroke-dasharray:none;stroke-opacity:1"
         d="m 88.5,576 h 47 v 21 h -47 z" /><text
         id="text272"
         style="font-variant:normal;font-weight:normal;font-size:9.99975586px;font-family:'Noto Sans';-inkscape-font-specification:NotoSans-Regular;writing-mode:lr-tb;fill:#000000;fill-opacity:1;fill-rule:nonzero;stroke:none"
         transform="translate(98,589)"><tspan
           id="tspan270"
           y="0"
           x="0 2.2499452 8.2497988 14.249652 20.249506 23.999414">input:</tspan></text>
<path
         id="path274"
         style="fill:none;stroke:#000000;stroke-width:1;stroke-linecap:butt;stroke-linejoin:miter;stroke-miterlimit:10;stroke-dasharray:none;stroke-opacity:1"
         d="m 135.5,576 h 54 v 21 h -54 z" /><text
         id="text278"
         style="font-variant:normal;font-weight:normal;font-size:9.99975586px;font-family:'Noto Sans';-inkscape-font-specification:NotoSans-Regular;writing-mode:lr-tb;fill:#000000;fill-opacity:1;fill-rule:nonzero;stroke:none"
         transform="translate(140.5,589)"><tspan
           id="tspan276"
           y="0"
           x="0 2.9999268 8.9997807 14.999634 20.999487 23.999414 26.249359 32.249214 38.249065 41.248993">(128, 20) </tspan></text>
<path
         id="path280"
         style="fill:none;stroke:#000000;stroke-width:1;stroke-linecap:butt;stroke-linejoin:miter;stroke-miterlimit:10;stroke-dasharray:none;stroke-opacity:1"
         d="m 88.5,597 h 47 v 21 h -47 z" /><text
         id="text284"
         style="font-variant:normal;font-weight:normal;font-size:9.99975586px;font-family:'Noto Sans';-inkscape-font-specification:NotoSans-Regular;writing-mode:lr-tb;fill:#000000;fill-opacity:1;fill-rule:nonzero;stroke:none"
         transform="translate(93.5,610)"><tspan
           id="tspan282"
           y="0"
           x="0 5.9998536 11.999707 15.749616 21.74947 27.749323 31.499231 34.499157">output: </tspan></text>
<path
         id="path286"
         style="fill:none;stroke:#000000;stroke-width:1;stroke-linecap:butt;stroke-linejoin:miter;stroke-miterlimit:10;stroke-dasharray:none;stroke-opacity:1"
         d="m 135.5,597 h 54 v 21 h -54 z" /><text
         id="text290"
         style="font-variant:normal;font-weight:normal;font-size:9.99975586px;font-family:'Noto Sans';-inkscape-font-specification:NotoSans-Regular;writing-mode:lr-tb;fill:#000000;fill-opacity:1;fill-rule:nonzero;stroke:none"
         transform="translate(140.5,610)"><tspan
           id="tspan288"
           y="0"
           x="0 2.9999268 8.9997807 14.999634 20.999487 23.999414 26.249359 32.249214 38.249065 41.248993">(128, 20) </tspan></text>
<path
         id="path292"
         style="fill:none;stroke:#000000;stroke-width:1;stroke-linecap:butt;stroke-linejoin:miter;stroke-miterlimit:10;stroke-dasharray:none;stroke-opacity:1"
         d="m 115.5,540.367 c 0,7.813 0,16.906 0,25.449" /><path
         id="path294"
         style="fill:#000000;fill-opacity:1;fill-rule:nonzero;stroke:#000000;stroke-width:1;stroke-linecap:butt;stroke-linejoin:miter;stroke-miterlimit:10;stroke-dasharray:none;stroke-opacity:1"
         d="m 119,565.84 -3.5,10 -3.5,-10 z" /><path
         id="path296"
         style="fill:#c1ffc1;fill-opacity:1;fill-rule:nonzero;stroke:none"
         d="m 41.5,654 h 148 v 42 h -148 z" /><path
         id="path298"
         style="fill:none;stroke:#000000;stroke-width:1;stroke-linecap:butt;stroke-linejoin:miter;stroke-miterlimit:10;stroke-dasharray:none;stroke-opacity:1"
         d="m 41.5,654 h 47 v 42 h -47 z" /><text
         id="text304"
         style="font-variant:normal;font-weight:normal;font-size:9.99975586px;font-family:'Noto Sans';-inkscape-font-specification:NotoSans-Regular;writing-mode:lr-tb;fill:#000000;fill-opacity:1;fill-rule:nonzero;stroke:none"
         transform="translate(50,672)"><tspan
           id="tspan300"
           y="0"
           x="0 5.239872 7.4998169 13.499671 19.499525 24.749395">Linear</tspan><tspan
           id="tspan302"
           y="11.000002"
           x="-3.5000045 2.4998491 8.4997025 14.499557 18.249464 24.249319 27.249245">depth:1</tspan></text>
<path
         id="path306"
         style="fill:none;stroke:#000000;stroke-width:1;stroke-linecap:butt;stroke-linejoin:miter;stroke-miterlimit:10;stroke-dasharray:none;stroke-opacity:1"
         d="m 88.5,654 h 47 v 21 h -47 z" /><text
         id="text310"
         style="font-variant:normal;font-weight:normal;font-size:9.99975586px;font-family:'Noto Sans';-inkscape-font-specification:NotoSans-Regular;writing-mode:lr-tb;fill:#000000;fill-opacity:1;fill-rule:nonzero;stroke:none"
         transform="translate(98,667)"><tspan
           id="tspan308"
           y="0"
           x="0 2.2499452 8.2497988 14.249652 20.249506 23.999414">input:</tspan></text>
<path
         id="path312"
         style="fill:none;stroke:#000000;stroke-width:1;stroke-linecap:butt;stroke-linejoin:miter;stroke-miterlimit:10;stroke-dasharray:none;stroke-opacity:1"
         d="m 135.5,654 h 54 v 21 h -54 z" /><text
         id="text316"
         style="font-variant:normal;font-weight:normal;font-size:9.99975586px;font-family:'Noto Sans';-inkscape-font-specification:NotoSans-Regular;writing-mode:lr-tb;fill:#000000;fill-opacity:1;fill-rule:nonzero;stroke:none"
         transform="translate(140.5,667)"><tspan
           id="tspan314"
           y="0"
           x="0 2.9999268 8.9997807 14.999634 20.999487 23.999414 26.249359 32.249214 38.249065 41.248993">(128, 20) </tspan></text>
<path
         id="path318"
         style="fill:none;stroke:#000000;stroke-width:1;stroke-linecap:butt;stroke-linejoin:miter;stroke-miterlimit:10;stroke-dasharray:none;stroke-opacity:1"
         d="m 88.5,675 h 47 v 21 h -47 z" /><text
         id="text322"
         style="font-variant:normal;font-weight:normal;font-size:9.99975586px;font-family:'Noto Sans';-inkscape-font-specification:NotoSans-Regular;writing-mode:lr-tb;fill:#000000;fill-opacity:1;fill-rule:nonzero;stroke:none"
         transform="translate(93.5,688)"><tspan
           id="tspan320"
           y="0"
           x="0 5.9998536 11.999707 15.749616 21.74947 27.749323 31.499231 34.499157">output: </tspan></text>
<path
         id="path324"
         style="fill:none;stroke:#000000;stroke-width:1;stroke-linecap:butt;stroke-linejoin:miter;stroke-miterlimit:10;stroke-dasharray:none;stroke-opacity:1"
         d="m 135.5,675 h 54 v 21 h -54 z" /><text
         id="text328"
         style="font-variant:normal;font-weight:normal;font-size:9.99975586px;font-family:'Noto Sans';-inkscape-font-specification:NotoSans-Regular;writing-mode:lr-tb;fill:#000000;fill-opacity:1;fill-rule:nonzero;stroke:none"
         transform="translate(143.5,688)"><tspan
           id="tspan326"
           y="0"
           x="0 2.9999268 8.9997807 14.999634 20.999487 23.999414 26.249359 32.249214 35.249142">(128, 1) </tspan></text>
<path
         id="path330"
         style="fill:none;stroke:#000000;stroke-width:1;stroke-linecap:butt;stroke-linejoin:miter;stroke-miterlimit:10;stroke-dasharray:none;stroke-opacity:1"
         d="m 115.5,618.367 c 0,7.813 0,16.906 0,25.449" /><path
         id="path332"
         style="fill:#000000;fill-opacity:1;fill-rule:nonzero;stroke:#000000;stroke-width:1;stroke-linecap:butt;stroke-linejoin:miter;stroke-miterlimit:10;stroke-dasharray:none;stroke-opacity:1"
         d="m 119,643.84 -3.5,10 -3.5,-10 z" /><path
         id="path334"
         style="fill:#ffffe0;fill-opacity:1;fill-rule:nonzero;stroke:none"
         d="m 54.5,732 h 122 v 32 h -122 z" /><path
         id="path336"
         style="fill:none;stroke:#000000;stroke-width:1;stroke-linecap:butt;stroke-linejoin:miter;stroke-miterlimit:10;stroke-dasharray:none;stroke-opacity:1"
         d="m 54.5,732 h 76 v 32 h -76 z" /><text
         id="text342"
         style="font-variant:normal;font-weight:normal;font-size:9.99975586px;font-family:'Noto Sans';-inkscape-font-specification:NotoSans-Regular;writing-mode:lr-tb;fill:#000000;fill-opacity:1;fill-rule:nonzero;stroke:none"
         transform="translate(59.5,745)"><tspan
           id="tspan338"
           y="0"
           x="0 5.9998536 11.999707 15.749616 21.74947 27.749323 31.499231 34.499157 38.249065 44.24892 50.248775 54.748665 60.748516">output-tensor</tspan><tspan
           id="tspan340"
           y="11.000002"
           x="14.499996 20.499849 26.499702 32.499557 36.249466 42.249321 45.249245">depth:0</tspan></text>
<path
         id="path344"
         style="fill:none;stroke:#000000;stroke-width:1;stroke-linecap:butt;stroke-linejoin:miter;stroke-miterlimit:10;stroke-dasharray:none;stroke-opacity:1"
         d="m 130.5,732 h 46 v 32 h -46 z" /><text
         id="text348"
         style="font-variant:normal;font-weight:normal;font-size:9.99975586px;font-family:'Noto Sans';-inkscape-font-specification:NotoSans-Regular;writing-mode:lr-tb;fill:#000000;fill-opacity:1;fill-rule:nonzero;stroke:none"
         transform="translate(135.5,750.5)"><tspan
           id="tspan346"
           y="0"
           x="0 2.9999268 8.9997807 14.999634 20.999487 23.999414 26.249359 32.249214">(128, 1)</tspan></text>
<path
         id="path350"
         style="fill:none;stroke:#000000;stroke-width:1;stroke-linecap:butt;stroke-linejoin:miter;stroke-miterlimit:10;stroke-dasharray:none;stroke-opacity:1"
         d="m 115.5,696.156 c 0,7.957 0,17.184 0,25.578" /><path
         id="path352"
         style="fill:#000000;fill-opacity:1;fill-rule:nonzero;stroke:#000000;stroke-width:1;stroke-linecap:butt;stroke-linejoin:miter;stroke-miterlimit:10;stroke-dasharray:none;stroke-opacity:1"
         d="m 119,721.762 -3.5,10 -3.5,-10 z" /></g></g></svg>