<?xml version="1.0" encoding="UTF-8" standalone="no"?>
<svg
   xmlns:dc="http://purl.org/dc/elements/1.1/"
   xmlns:cc="http://creativecommons.org/ns#"
   xmlns:rdf="http://www.w3.org/1999/02/22-rdf-syntax-ns#"
   xmlns:svg="http://www.w3.org/2000/svg"
   xmlns="http://www.w3.org/2000/svg"
   viewBox="0 0 790.66669 656"
   height="656"
   width="790.66669"
   xml:space="preserve"
   id="svg2"
   version="1.1"><metadata
     id="metadata8"><rdf:RDF><cc:Work
         rdf:about=""><dc:format>image/svg+xml</dc:format><dc:type
           rdf:resource="http://purl.org/dc/dcmitype/StillImage" /></cc:Work></rdf:RDF></metadata><defs
     id="defs6" /><g
     transform="matrix(1.3333333,0,0,1.3333333,0,1.64e-5)"
     id="g10"><g
       id="g12"><path
         id="path14"
         style="fill:#ffffe0;fill-opacity:1;fill-rule:nonzero;stroke:none"
         d="m 59.5,40 h 120 v 32 h -120 z" /><path
         id="path16"
         style="fill:none;stroke:#000000;stroke-width:1;stroke-linecap:butt;stroke-linejoin:miter;stroke-miterlimit:10;stroke-dasharray:none;stroke-opacity:1"
         d="m 59.5,40 h 68 v 32 h -68 z" /><text
         id="text22"
         style="font-variant:normal;font-weight:normal;font-size:9.99975586px;font-family:'Noto Sans';-inkscape-font-specification:NotoSans-Regular;writing-mode:lr-tb;fill:#000000;fill-opacity:1;fill-rule:nonzero;stroke:none"
         transform="translate(64.5,53)"><tspan
           id="tspan18"
           y="0"
           x="0 2.2499452 8.2497988 14.249652 20.249506 23.999414 26.999342 30.74925 36.749104 42.748959 47.248848 53.248699">input-tensor</tspan><tspan
           id="tspan20"
           y="11.000002"
           x="10.500004 16.499857 22.49971 28.499565 32.249474 38.249325 41.249252">depth:0</tspan></text>
<path
         id="path24"
         style="fill:none;stroke:#000000;stroke-width:1;stroke-linecap:butt;stroke-linejoin:miter;stroke-miterlimit:10;stroke-dasharray:none;stroke-opacity:1"
         d="m 127.5,40 h 52 v 32 h -52 z" /><text
         id="text28"
         style="font-variant:normal;font-weight:normal;font-size:9.99975586px;font-family:'Noto Sans';-inkscape-font-specification:NotoSans-Regular;writing-mode:lr-tb;fill:#000000;fill-opacity:1;fill-rule:nonzero;stroke:none"
         transform="translate(132.5,58.5)"><tspan
           id="tspan26"
           y="0"
           x="0 2.9999268 8.9997807 14.999634 20.999487 23.999414 26.249359 32.249214 38.249065">(128, 19)</tspan></text>
<path
         id="path30"
         style="fill:#f0f8ff;fill-opacity:1;fill-rule:nonzero;stroke:none"
         d="m 40,108 h 159 v 42 H 40 Z" /><path
         id="path32"
         style="fill:none;stroke:#000000;stroke-width:1;stroke-linecap:butt;stroke-linejoin:miter;stroke-miterlimit:10;stroke-dasharray:none;stroke-opacity:1"
         d="m 40.5,108 h 47 v 42 h -47 z" /><text
         id="text38"
         style="font-variant:normal;font-weight:normal;font-size:9.99975586px;font-family:'Noto Sans';-inkscape-font-specification:NotoSans-Regular;writing-mode:lr-tb;fill:#000000;fill-opacity:1;fill-rule:nonzero;stroke:none"
         transform="translate(53.5,126)"><tspan
           id="tspan34"
           y="0"
           x="0 5.2498717 7.4998169 12.749689">view</tspan><tspan
           id="tspan36"
           y="11.000002"
           x="-8.0000048 -2.0001512 3.9997025 9.9995556 13.749464 19.749317 22.749245">depth:1</tspan></text>
<path
         id="path40"
         style="fill:none;stroke:#000000;stroke-width:1;stroke-linecap:butt;stroke-linejoin:miter;stroke-miterlimit:10;stroke-dasharray:none;stroke-opacity:1"
         d="m 87.5,108 h 47 v 21 h -47 z" /><text
         id="text44"
         style="font-variant:normal;font-weight:normal;font-size:9.99975586px;font-family:'Noto Sans';-inkscape-font-specification:NotoSans-Regular;writing-mode:lr-tb;fill:#000000;fill-opacity:1;fill-rule:nonzero;stroke:none"
         transform="translate(97,121)"><tspan
           id="tspan42"
           y="0"
           x="0 2.2499452 8.2497988 14.249652 20.249506 23.999414">input:</tspan></text>
<path
         id="path46"
         style="fill:none;stroke:#000000;stroke-width:1;stroke-linecap:butt;stroke-linejoin:miter;stroke-miterlimit:10;stroke-dasharray:none;stroke-opacity:1"
         d="m 134.5,108 h 65 v 21 h -65 z" /><text
         id="text50"
         style="font-variant:normal;font-weight:normal;font-size:9.99975586px;font-family:'Noto Sans';-inkscape-font-specification:NotoSans-Regular;writing-mode:lr-tb;fill:#000000;fill-opacity:1;fill-rule:nonzero;stroke:none"
         transform="translate(145,121)"><tspan
           id="tspan48"
           y="0"
           x="0 2.9999268 8.9997807 14.999634 20.999487 23.999414 26.249359 32.249214 38.249065 41.248993">(128, 19) </tspan></text>
<path
         id="path52"
         style="fill:none;stroke:#000000;stroke-width:1;stroke-linecap:butt;stroke-linejoin:miter;stroke-miterlimit:10;stroke-dasharray:none;stroke-opacity:1"
         d="m 87.5,129 h 47 v 21 h -47 z" /><text
         id="text56"
         style="font-variant:normal;font-weight:normal;font-size:9.99975586px;font-family:'Noto Sans';-inkscape-font-specification:NotoSans-Regular;writing-mode:lr-tb;fill:#000000;fill-opacity:1;fill-rule:nonzero;stroke:none"
         transform="translate(92.5,142)"><tspan
           id="tspan54"
           y="0"
           x="0 5.9998536 11.999707 15.749616 21.74947 27.749323 31.499231 34.499157">output: </tspan></text>
<path
         id="path58"
         style="fill:none;stroke:#000000;stroke-width:1;stroke-linecap:butt;stroke-linejoin:miter;stroke-miterlimit:10;stroke-dasharray:none;stroke-opacity:1"
         d="m 134.5,129 h 65 v 21 h -65 z" /><text
         id="text62"
         style="font-variant:normal;font-weight:normal;font-size:9.99975586px;font-family:'Noto Sans';-inkscape-font-specification:NotoSans-Regular;writing-mode:lr-tb;fill:#000000;fill-opacity:1;fill-rule:nonzero;stroke:none"
         transform="translate(139.5,142)"><tspan
           id="tspan60"
           y="0"
           x="0 2.9999268 8.9997807 14.999634 20.999487 23.999414 26.249359 32.249214 35.249142 37.499084 43.49894 49.498791 52.498718">(128, 1, 19) </tspan></text>
<path
         id="path64"
         style="fill:none;stroke:#000000;stroke-width:1;stroke-linecap:butt;stroke-linejoin:miter;stroke-miterlimit:10;stroke-dasharray:none;stroke-opacity:1"
         d="m 119.5,72.059 c 0,7.488 0,16.82 0,25.703" /><path
         id="path66"
         style="fill:#000000;fill-opacity:1;fill-rule:nonzero;stroke:#000000;stroke-width:1;stroke-linecap:butt;stroke-linejoin:miter;stroke-miterlimit:10;stroke-dasharray:none;stroke-opacity:1"
         d="m 123,97.844 -3.5,10 -3.5,-10 z" /><path
         id="path68"
         style="fill:#c1ffc1;fill-opacity:1;fill-rule:nonzero;stroke:none"
         d="m 180,186 h 233 v 42 H 180 Z" /><path
         id="path70"
         style="fill:none;stroke:#000000;stroke-width:1;stroke-linecap:butt;stroke-linejoin:miter;stroke-miterlimit:10;stroke-dasharray:none;stroke-opacity:1"
         d="m 180.5,186 h 47 v 42 h -47 z" /><text
         id="text76"
         style="font-variant:normal;font-weight:normal;font-size:9.99975586px;font-family:'Noto Sans';-inkscape-font-specification:NotoSans-Regular;writing-mode:lr-tb;fill:#000000;fill-opacity:1;fill-rule:nonzero;stroke:none"
         transform="translate(191.5,204)"><tspan
           id="tspan72"
           y="0"
           x="0 5.239872 10.499743 15.749616">LSTM</tspan><tspan
           id="tspan74"
           y="11.000002"
           x="-6.0000038 -0.00015000001 5.9997034 11.999557 15.749466 21.749319 24.749247">depth:1</tspan></text>
<path
         id="path78"
         style="fill:none;stroke:#000000;stroke-width:1;stroke-linecap:butt;stroke-linejoin:miter;stroke-miterlimit:10;stroke-dasharray:none;stroke-opacity:1"
         d="m 227.5,186 h 47 v 21 h -47 z" /><text
         id="text82"
         style="font-variant:normal;font-weight:normal;font-size:9.99975586px;font-family:'Noto Sans';-inkscape-font-specification:NotoSans-Regular;writing-mode:lr-tb;fill:#000000;fill-opacity:1;fill-rule:nonzero;stroke:none"
         transform="translate(237,199)"><tspan
           id="tspan80"
           y="0"
           x="0 2.2499452 8.2497988 14.249652 20.249506 23.999414">input:</tspan></text>
<path
         id="path84"
         style="fill:none;stroke:#000000;stroke-width:1;stroke-linecap:butt;stroke-linejoin:miter;stroke-miterlimit:10;stroke-dasharray:none;stroke-opacity:1"
         d="m 274.5,186 h 139 v 21 h -139 z" /><text
         id="text88"
         style="font-variant:normal;font-weight:normal;font-size:9.99975586px;font-family:'Noto Sans';-inkscape-font-specification:NotoSans-Regular;writing-mode:lr-tb;fill:#000000;fill-opacity:1;fill-rule:nonzero;stroke:none"
         transform="translate(279.5,199)"><tspan
           id="tspan86"
           y="0"
           x="0 2.9999268 8.9997807 14.999634 20.999487 23.999414 26.249359 32.249214 35.249142 37.499084 43.49894 49.498791 52.498718 55.498646 57.748592 63.748444 65.99839 71.24826 73.498207 76.498131 82.497986 85.497917 87.747856 93.747711 99.747566 105.74742 108.74734 110.99729 116.99715 122.997 125.99693">(128, 1, 19), 2 x (1, 128, 20) </tspan></text>
<path
         id="path90"
         style="fill:none;stroke:#000000;stroke-width:1;stroke-linecap:butt;stroke-linejoin:miter;stroke-miterlimit:10;stroke-dasharray:none;stroke-opacity:1"
         d="m 227.5,207 h 47 v 21 h -47 z" /><text
         id="text94"
         style="font-variant:normal;font-weight:normal;font-size:9.99975586px;font-family:'Noto Sans';-inkscape-font-specification:NotoSans-Regular;writing-mode:lr-tb;fill:#000000;fill-opacity:1;fill-rule:nonzero;stroke:none"
         transform="translate(232.5,220)"><tspan
           id="tspan92"
           y="0"
           x="0 5.9998536 11.999707 15.749616 21.74947 27.749323 31.499231 34.499157">output: </tspan></text>
<path
         id="path96"
         style="fill:none;stroke:#000000;stroke-width:1;stroke-linecap:butt;stroke-linejoin:miter;stroke-miterlimit:10;stroke-dasharray:none;stroke-opacity:1"
         d="m 274.5,207 h 139 v 21 h -139 z" /><text
         id="text100"
         style="font-variant:normal;font-weight:normal;font-size:9.99975586px;font-family:'Noto Sans';-inkscape-font-specification:NotoSans-Regular;writing-mode:lr-tb;fill:#000000;fill-opacity:1;fill-rule:nonzero;stroke:none"
         transform="translate(279.5,220)"><tspan
           id="tspan98"
           y="0"
           x="0 2.9999268 8.9997807 14.999634 20.999487 23.999414 26.249359 32.249214 35.249142 37.499084 43.49894 49.498791 52.498718 55.498646 57.748592 63.748444 65.99839 71.24826 73.498207 76.498131 82.497986 85.497917 87.747856 93.747711 99.747566 105.74742 108.74734 110.99729 116.99715 122.997 125.99693">(128, 1, 20), 2 x (1, 128, 20) </tspan></text>
<path
         id="path102"
         style="fill:none;stroke:#000000;stroke-width:1;stroke-linecap:butt;stroke-linejoin:miter;stroke-miterlimit:10;stroke-dasharray:none;stroke-opacity:1"
         d="m 166.469,150.168 c 22.691,9.742 50.097,21.512 73.886,31.727" /><path
         id="path104"
         style="fill:#000000;fill-opacity:1;fill-rule:nonzero;stroke:#000000;stroke-width:1;stroke-linecap:butt;stroke-linejoin:miter;stroke-miterlimit:10;stroke-dasharray:none;stroke-opacity:1"
         d="m 241.812,178.711 7.809,7.16 -10.57,-0.73 z" /><path
         id="path106"
         style="fill:#f0f8ff;fill-opacity:1;fill-rule:nonzero;stroke:none"
         d="m 217,108 h 159 v 42 H 217 Z" /><path
         id="path108"
         style="fill:none;stroke:#000000;stroke-width:1;stroke-linecap:butt;stroke-linejoin:miter;stroke-miterlimit:10;stroke-dasharray:none;stroke-opacity:1"
         d="m 217.5,108 h 47 v 42 h -47 z" /><text
         id="text114"
         style="font-variant:normal;font-weight:normal;font-size:9.99975586px;font-family:'Noto Sans';-inkscape-font-specification:NotoSans-Regular;writing-mode:lr-tb;fill:#000000;fill-opacity:1;fill-rule:nonzero;stroke:none"
         transform="translate(236,126)"><tspan
           id="tspan110"
           y="0"
           x="0 3.7499084">to</tspan><tspan
           id="tspan112"
           y="11.000002"
           x="-13.500001 -7.5001469 -1.5002934 4.4995604 8.2494688 14.249322 17.249249">depth:1</tspan></text>
<path
         id="path116"
         style="fill:none;stroke:#000000;stroke-width:1;stroke-linecap:butt;stroke-linejoin:miter;stroke-miterlimit:10;stroke-dasharray:none;stroke-opacity:1"
         d="m 264.5,108 h 47 v 21 h -47 z" /><text
         id="text120"
         style="font-variant:normal;font-weight:normal;font-size:9.99975586px;font-family:'Noto Sans';-inkscape-font-specification:NotoSans-Regular;writing-mode:lr-tb;fill:#000000;fill-opacity:1;fill-rule:nonzero;stroke:none"
         transform="translate(274,121)"><tspan
           id="tspan118"
           y="0"
           x="0 2.2499452 8.2497988 14.249652 20.249506 23.999414">input:</tspan></text>
<path
         id="path122"
         style="fill:none;stroke:#000000;stroke-width:1;stroke-linecap:butt;stroke-linejoin:miter;stroke-miterlimit:10;stroke-dasharray:none;stroke-opacity:1"
         d="m 311.5,108 h 65 v 21 h -65 z" /><text
         id="text126"
         style="font-variant:normal;font-weight:normal;font-size:9.99975586px;font-family:'Noto Sans';-inkscape-font-specification:NotoSans-Regular;writing-mode:lr-tb;fill:#000000;fill-opacity:1;fill-rule:nonzero;stroke:none"
         transform="translate(316.5,121)"><tspan
           id="tspan124"
           y="0"
           x="0 2.9999268 8.9997807 11.999707 14.249652 20.249506 26.249359 32.249214 35.249142 37.499084 43.49894 49.498791 52.498718">(1, 128, 20) </tspan></text>
<path
         id="path128"
         style="fill:none;stroke:#000000;stroke-width:1;stroke-linecap:butt;stroke-linejoin:miter;stroke-miterlimit:10;stroke-dasharray:none;stroke-opacity:1"
         d="m 264.5,129 h 47 v 21 h -47 z" /><text
         id="text132"
         style="font-variant:normal;font-weight:normal;font-size:9.99975586px;font-family:'Noto Sans';-inkscape-font-specification:NotoSans-Regular;writing-mode:lr-tb;fill:#000000;fill-opacity:1;fill-rule:nonzero;stroke:none"
         transform="translate(269.5,142)"><tspan
           id="tspan130"
           y="0"
           x="0 5.9998536 11.999707 15.749616 21.74947 27.749323 31.499231 34.499157">output: </tspan></text>
<path
         id="path134"
         style="fill:none;stroke:#000000;stroke-width:1;stroke-linecap:butt;stroke-linejoin:miter;stroke-miterlimit:10;stroke-dasharray:none;stroke-opacity:1"
         d="m 311.5,129 h 65 v 21 h -65 z" /><text
         id="text138"
         style="font-variant:normal;font-weight:normal;font-size:9.99975586px;font-family:'Noto Sans';-inkscape-font-specification:NotoSans-Regular;writing-mode:lr-tb;fill:#000000;fill-opacity:1;fill-rule:nonzero;stroke:none"
         transform="translate(316.5,142)"><tspan
           id="tspan136"
           y="0"
           x="0 2.9999268 8.9997807 11.999707 14.249652 20.249506 26.249359 32.249214 35.249142 37.499084 43.49894 49.498791 52.498718">(1, 128, 20) </tspan></text>
<path
         id="path140"
         style="fill:none;stroke:#000000;stroke-width:1;stroke-linecap:butt;stroke-linejoin:miter;stroke-miterlimit:10;stroke-dasharray:none;stroke-opacity:1"
         d="m 296.5,150.367 c 0,7.813 0,16.906 0,25.449" /><path
         id="path142"
         style="fill:#000000;fill-opacity:1;fill-rule:nonzero;stroke:#000000;stroke-width:1;stroke-linecap:butt;stroke-linejoin:miter;stroke-miterlimit:10;stroke-dasharray:none;stroke-opacity:1"
         d="m 300,175.84 -3.5,10 -3.5,-10 z" /><path
         id="path144"
         style="fill:#f0f8ff;fill-opacity:1;fill-rule:nonzero;stroke:none"
         d="m 394,108 h 159 v 42 H 394 Z" /><path
         id="path146"
         style="fill:none;stroke:#000000;stroke-width:1;stroke-linecap:butt;stroke-linejoin:miter;stroke-miterlimit:10;stroke-dasharray:none;stroke-opacity:1"
         d="m 394.5,108 h 47 v 42 h -47 z" /><text
         id="text152"
         style="font-variant:normal;font-weight:normal;font-size:9.99975586px;font-family:'Noto Sans';-inkscape-font-specification:NotoSans-Regular;writing-mode:lr-tb;fill:#000000;fill-opacity:1;fill-rule:nonzero;stroke:none"
         transform="translate(413,126)"><tspan
           id="tspan148"
           y="0"
           x="0 3.7499084">to</tspan><tspan
           id="tspan150"
           y="11.000002"
           x="-13.500001 -7.5001469 -1.5002934 4.4995604 8.2494688 14.249322 17.249249">depth:1</tspan></text>
<path
         id="path154"
         style="fill:none;stroke:#000000;stroke-width:1;stroke-linecap:butt;stroke-linejoin:miter;stroke-miterlimit:10;stroke-dasharray:none;stroke-opacity:1"
         d="m 441.5,108 h 47 v 21 h -47 z" /><text
         id="text158"
         style="font-variant:normal;font-weight:normal;font-size:9.99975586px;font-family:'Noto Sans';-inkscape-font-specification:NotoSans-Regular;writing-mode:lr-tb;fill:#000000;fill-opacity:1;fill-rule:nonzero;stroke:none"
         transform="translate(451,121)"><tspan
           id="tspan156"
           y="0"
           x="0 2.2499452 8.2497988 14.249652 20.249506 23.999414">input:</tspan></text>
<path
         id="path160"
         style="fill:none;stroke:#000000;stroke-width:1;stroke-linecap:butt;stroke-linejoin:miter;stroke-miterlimit:10;stroke-dasharray:none;stroke-opacity:1"
         d="m 488.5,108 h 65 v 21 h -65 z" /><text
         id="text164"
         style="font-variant:normal;font-weight:normal;font-size:9.99975586px;font-family:'Noto Sans';-inkscape-font-specification:NotoSans-Regular;writing-mode:lr-tb;fill:#000000;fill-opacity:1;fill-rule:nonzero;stroke:none"
         transform="translate(493.5,121)"><tspan
           id="tspan162"
           y="0"
           x="0 2.9999268 8.9997807 11.999707 14.249652 20.249506 26.249359 32.249214 35.249142 37.499084 43.49894 49.498791 52.498718">(1, 128, 20) </tspan></text>
<path
         id="path166"
         style="fill:none;stroke:#000000;stroke-width:1;stroke-linecap:butt;stroke-linejoin:miter;stroke-miterlimit:10;stroke-dasharray:none;stroke-opacity:1"
         d="m 441.5,129 h 47 v 21 h -47 z" /><text
         id="text170"
         style="font-variant:normal;font-weight:normal;font-size:9.99975586px;font-family:'Noto Sans';-inkscape-font-specification:NotoSans-Regular;writing-mode:lr-tb;fill:#000000;fill-opacity:1;fill-rule:nonzero;stroke:none"
         transform="translate(446.5,142)"><tspan
           id="tspan168"
           y="0"
           x="0 5.9998536 11.999707 15.749616 21.74947 27.749323 31.499231 34.499157">output: </tspan></text>
<path
         id="path172"
         style="fill:none;stroke:#000000;stroke-width:1;stroke-linecap:butt;stroke-linejoin:miter;stroke-miterlimit:10;stroke-dasharray:none;stroke-opacity:1"
         d="m 488.5,129 h 65 v 21 h -65 z" /><text
         id="text176"
         style="font-variant:normal;font-weight:normal;font-size:9.99975586px;font-family:'Noto Sans';-inkscape-font-specification:NotoSans-Regular;writing-mode:lr-tb;fill:#000000;fill-opacity:1;fill-rule:nonzero;stroke:none"
         transform="translate(493.5,142)"><tspan
           id="tspan174"
           y="0"
           x="0 2.9999268 8.9997807 11.999707 14.249652 20.249506 26.249359 32.249214 35.249142 37.499084 43.49894 49.498791 52.498718">(1, 128, 20) </tspan></text>
<path
         id="path178"
         style="fill:none;stroke:#000000;stroke-width:1;stroke-linecap:butt;stroke-linejoin:miter;stroke-miterlimit:10;stroke-dasharray:none;stroke-opacity:1"
         d="m 426.531,150.168 c -22.691,9.742 -50.097,21.512 -73.886,31.727" /><path
         id="path180"
         style="fill:#000000;fill-opacity:1;fill-rule:nonzero;stroke:#000000;stroke-width:1;stroke-linecap:butt;stroke-linejoin:miter;stroke-miterlimit:10;stroke-dasharray:none;stroke-opacity:1"
         d="m 353.949,185.141 -10.57,0.73 7.809,-7.16 z" /><path
         id="path182"
         style="fill:#f0f8ff;fill-opacity:1;fill-rule:nonzero;stroke:none"
         d="m 208,264 h 177 v 42 H 208 Z" /><path
         id="path184"
         style="fill:none;stroke:#000000;stroke-width:1;stroke-linecap:butt;stroke-linejoin:miter;stroke-miterlimit:10;stroke-dasharray:none;stroke-opacity:1"
         d="m 208.5,264 h 65 v 42 h -65 z" /><text
         id="text190"
         style="font-variant:normal;font-weight:normal;font-size:9.99975586px;font-family:'Noto Sans';-inkscape-font-specification:NotoSans-Regular;writing-mode:lr-tb;fill:#000000;fill-opacity:1;fill-rule:nonzero;stroke:none"
         transform="translate(213.5,282)"><tspan
           id="tspan186"
           y="0"
           x="0 4.4998903 8.9997807 14.999634 20.999487 24.749395 26.999342 30.74925 36.749104 45.748882 50.248775">__getitem__</tspan><tspan
           id="tspan188"
           y="11.000002"
           x="9 14.999854 20.999708 26.999561 30.74947 36.749325 39.749249">depth:1</tspan></text>
<path
         id="path192"
         style="fill:none;stroke:#000000;stroke-width:1;stroke-linecap:butt;stroke-linejoin:miter;stroke-miterlimit:10;stroke-dasharray:none;stroke-opacity:1"
         d="m 273.5,264 h 47 v 21 h -47 z" /><text
         id="text196"
         style="font-variant:normal;font-weight:normal;font-size:9.99975586px;font-family:'Noto Sans';-inkscape-font-specification:NotoSans-Regular;writing-mode:lr-tb;fill:#000000;fill-opacity:1;fill-rule:nonzero;stroke:none"
         transform="translate(283,277)"><tspan
           id="tspan194"
           y="0"
           x="0 2.2499452 8.2497988 14.249652 20.249506 23.999414">input:</tspan></text>
<path
         id="path198"
         style="fill:none;stroke:#000000;stroke-width:1;stroke-linecap:butt;stroke-linejoin:miter;stroke-miterlimit:10;stroke-dasharray:none;stroke-opacity:1"
         d="m 320.5,264 h 65 v 21 h -65 z" /><text
         id="text202"
         style="font-variant:normal;font-weight:normal;font-size:9.99975586px;font-family:'Noto Sans';-inkscape-font-specification:NotoSans-Regular;writing-mode:lr-tb;fill:#000000;fill-opacity:1;fill-rule:nonzero;stroke:none"
         transform="translate(325.5,277)"><tspan
           id="tspan200"
           y="0"
           x="0 2.9999268 8.9997807 14.999634 20.999487 23.999414 26.249359 32.249214 35.249142 37.499084 43.49894 49.498791 52.498718">(128, 1, 20) </tspan></text>
<path
         id="path204"
         style="fill:none;stroke:#000000;stroke-width:1;stroke-linecap:butt;stroke-linejoin:miter;stroke-miterlimit:10;stroke-dasharray:none;stroke-opacity:1"
         d="m 273.5,285 h 47 v 21 h -47 z" /><text
         id="text208"
         style="font-variant:normal;font-weight:normal;font-size:9.99975586px;font-family:'Noto Sans';-inkscape-font-specification:NotoSans-Regular;writing-mode:lr-tb;fill:#000000;fill-opacity:1;fill-rule:nonzero;stroke:none"
         transform="translate(278.5,298)"><tspan
           id="tspan206"
           y="0"
           x="0 5.9998536 11.999707 15.749616 21.74947 27.749323 31.499231 34.499157">output: </tspan></text>
<path
         id="path210"
         style="fill:none;stroke:#000000;stroke-width:1;stroke-linecap:butt;stroke-linejoin:miter;stroke-miterlimit:10;stroke-dasharray:none;stroke-opacity:1"
         d="m 320.5,285 h 65 v 21 h -65 z" /><text
         id="text214"
         style="font-variant:normal;font-weight:normal;font-size:9.99975586px;font-family:'Noto Sans';-inkscape-font-specification:NotoSans-Regular;writing-mode:lr-tb;fill:#000000;fill-opacity:1;fill-rule:nonzero;stroke:none"
         transform="translate(331,298)"><tspan
           id="tspan212"
           y="0"
           x="0 2.9999268 8.9997807 14.999634 20.999487 23.999414 26.249359 32.249214 38.249065 41.248993">(128, 20) </tspan></text>
<path
         id="path216"
         style="fill:none;stroke:#000000;stroke-width:1;stroke-linecap:butt;stroke-linejoin:miter;stroke-miterlimit:10;stroke-dasharray:none;stroke-opacity:1"
         d="m 296.5,228.367 c 0,7.813 0,16.906 0,25.449" /><path
         id="path218"
         style="fill:#000000;fill-opacity:1;fill-rule:nonzero;stroke:#000000;stroke-width:1;stroke-linecap:butt;stroke-linejoin:miter;stroke-miterlimit:10;stroke-dasharray:none;stroke-opacity:1"
         d="m 300,253.84 -3.5,10 -3.5,-10 z" /><path
         id="path220"
         style="fill:#c1ffc1;fill-opacity:1;fill-rule:nonzero;stroke:none"
         d="m 222.5,342 h 148 v 42 h -148 z" /><path
         id="path222"
         style="fill:none;stroke:#000000;stroke-width:1;stroke-linecap:butt;stroke-linejoin:miter;stroke-miterlimit:10;stroke-dasharray:none;stroke-opacity:1"
         d="m 222.5,342 h 47 v 42 h -47 z" /><text
         id="text228"
         style="font-variant:normal;font-weight:normal;font-size:9.99975586px;font-family:'Noto Sans';-inkscape-font-specification:NotoSans-Regular;writing-mode:lr-tb;fill:#000000;fill-opacity:1;fill-rule:nonzero;stroke:none"
         transform="translate(231,360)"><tspan
           id="tspan224"
           y="0"
           x="0 5.239872 7.4998169 13.499671 19.499525 24.749395">Linear</tspan><tspan
           id="tspan226"
           y="11.000002"
           x="-3.5000045 2.4998491 8.4997025 14.499557 18.249464 24.249319 27.249245">depth:1</tspan></text>
<path
         id="path230"
         style="fill:none;stroke:#000000;stroke-width:1;stroke-linecap:butt;stroke-linejoin:miter;stroke-miterlimit:10;stroke-dasharray:none;stroke-opacity:1"
         d="m 269.5,342 h 47 v 21 h -47 z" /><text
         id="text234"
         style="font-variant:normal;font-weight:normal;font-size:9.99975586px;font-family:'Noto Sans';-inkscape-font-specification:NotoSans-Regular;writing-mode:lr-tb;fill:#000000;fill-opacity:1;fill-rule:nonzero;stroke:none"
         transform="translate(279,355)"><tspan
           id="tspan232"
           y="0"
           x="0 2.2499452 8.2497988 14.249652 20.249506 23.999414">input:</tspan></text>
<path
         id="path236"
         style="fill:none;stroke:#000000;stroke-width:1;stroke-linecap:butt;stroke-linejoin:miter;stroke-miterlimit:10;stroke-dasharray:none;stroke-opacity:1"
         d="m 316.5,342 h 54 v 21 h -54 z" /><text
         id="text240"
         style="font-variant:normal;font-weight:normal;font-size:9.99975586px;font-family:'Noto Sans';-inkscape-font-specification:NotoSans-Regular;writing-mode:lr-tb;fill:#000000;fill-opacity:1;fill-rule:nonzero;stroke:none"
         transform="translate(321.5,355)"><tspan
           id="tspan238"
           y="0"
           x="0 2.9999268 8.9997807 14.999634 20.999487 23.999414 26.249359 32.249214 38.249065 41.248993">(128, 20) </tspan></text>
<path
         id="path242"
         style="fill:none;stroke:#000000;stroke-width:1;stroke-linecap:butt;stroke-linejoin:miter;stroke-miterlimit:10;stroke-dasharray:none;stroke-opacity:1"
         d="m 269.5,363 h 47 v 21 h -47 z" /><text
         id="text246"
         style="font-variant:normal;font-weight:normal;font-size:9.99975586px;font-family:'Noto Sans';-inkscape-font-specification:NotoSans-Regular;writing-mode:lr-tb;fill:#000000;fill-opacity:1;fill-rule:nonzero;stroke:none"
         transform="translate(274.5,376)"><tspan
           id="tspan244"
           y="0"
           x="0 5.9998536 11.999707 15.749616 21.74947 27.749323 31.499231 34.499157">output: </tspan></text>
<path
         id="path248"
         style="fill:none;stroke:#000000;stroke-width:1;stroke-linecap:butt;stroke-linejoin:miter;stroke-miterlimit:10;stroke-dasharray:none;stroke-opacity:1"
         d="m 316.5,363 h 54 v 21 h -54 z" /><text
         id="text252"
         style="font-variant:normal;font-weight:normal;font-size:9.99975586px;font-family:'Noto Sans';-inkscape-font-specification:NotoSans-Regular;writing-mode:lr-tb;fill:#000000;fill-opacity:1;fill-rule:nonzero;stroke:none"
         transform="translate(324.5,376)"><tspan
           id="tspan250"
           y="0"
           x="0 2.9999268 8.9997807 14.999634 20.999487 23.999414 26.249359 32.249214 35.249142">(128, 1) </tspan></text>
<path
         id="path254"
         style="fill:none;stroke:#000000;stroke-width:1;stroke-linecap:butt;stroke-linejoin:miter;stroke-miterlimit:10;stroke-dasharray:none;stroke-opacity:1"
         d="m 296.5,306.367 c 0,7.813 0,16.906 0,25.449" /><path
         id="path256"
         style="fill:#000000;fill-opacity:1;fill-rule:nonzero;stroke:#000000;stroke-width:1;stroke-linecap:butt;stroke-linejoin:miter;stroke-miterlimit:10;stroke-dasharray:none;stroke-opacity:1"
         d="m 300,331.84 -3.5,10 -3.5,-10 z" /><path
         id="path258"
         style="fill:#ffffe0;fill-opacity:1;fill-rule:nonzero;stroke:none"
         d="m 235.5,420 h 122 v 32 h -122 z" /><path
         id="path260"
         style="fill:none;stroke:#000000;stroke-width:1;stroke-linecap:butt;stroke-linejoin:miter;stroke-miterlimit:10;stroke-dasharray:none;stroke-opacity:1"
         d="m 235.5,420 h 76 v 32 h -76 z" /><text
         id="text266"
         style="font-variant:normal;font-weight:normal;font-size:9.99975586px;font-family:'Noto Sans';-inkscape-font-specification:NotoSans-Regular;writing-mode:lr-tb;fill:#000000;fill-opacity:1;fill-rule:nonzero;stroke:none"
         transform="translate(240.5,433)"><tspan
           id="tspan262"
           y="0"
           x="0 5.9998536 11.999707 15.749616 21.74947 27.749323 31.499231 34.499157 38.249065 44.24892 50.248775 54.748665 60.748516">output-tensor</tspan><tspan
           id="tspan264"
           y="11.000002"
           x="14.499996 20.499849 26.499702 32.499557 36.249466 42.249321 45.249245">depth:0</tspan></text>
<path
         id="path268"
         style="fill:none;stroke:#000000;stroke-width:1;stroke-linecap:butt;stroke-linejoin:miter;stroke-miterlimit:10;stroke-dasharray:none;stroke-opacity:1"
         d="m 311.5,420 h 46 v 32 h -46 z" /><text
         id="text272"
         style="font-variant:normal;font-weight:normal;font-size:9.99975586px;font-family:'Noto Sans';-inkscape-font-specification:NotoSans-Regular;writing-mode:lr-tb;fill:#000000;fill-opacity:1;fill-rule:nonzero;stroke:none"
         transform="translate(316.5,438.5)"><tspan
           id="tspan270"
           y="0"
           x="0 2.9999268 8.9997807 14.999634 20.999487 23.999414 26.249359 32.249214">(128, 1)</tspan></text>
<path
         id="path274"
         style="fill:none;stroke:#000000;stroke-width:1;stroke-linecap:butt;stroke-linejoin:miter;stroke-miterlimit:10;stroke-dasharray:none;stroke-opacity:1"
         d="m 296.5,384.156 c 0,7.957 0,17.184 0,25.578" /><path
         id="path276"
         style="fill:#000000;fill-opacity:1;fill-rule:nonzero;stroke:#000000;stroke-width:1;stroke-linecap:butt;stroke-linejoin:miter;stroke-miterlimit:10;stroke-dasharray:none;stroke-opacity:1"
         d="m 300,409.762 -3.5,10 -3.5,-10 z" /></g></g></svg>